<svg width="25" height="25" viewBox="0 0 35 35" fill="none" xmlns="http://www.w3.org/2000/svg">
<g clip-path="url(#clip0_3_10)">
<path d="M33.6 17.07C33.596 20.3479 32.6186 23.5508 30.7918 26.2726C28.965 28.9943 26.3712 31.1123 23.3392 32.3579C20.3071 33.6036 16.9735 33.9208 13.7609 33.2694C10.5484 32.6179 7.6016 31.0271 5.2943 28.6988C2.98701 26.3704 1.4231 23.4093 0.800895 20.191C0.178685 16.9726 0.526201 13.642 1.79937 10.6214C3.07254 7.60079 5.21402 5.0263 7.95226 3.22437C10.6905 1.42244 13.9021 0.474262 17.18 0.500007C21.551 0.531713 25.7318 2.29241 28.8086 5.39732C31.8854 8.50222 33.6081 12.6988 33.6 17.07V17.07ZM23.31 17.91C23.22 17.69 23.16 17.54 23.09 17.4C22.16 15.47 21.22 13.54 20.29 11.62C19.6234 10.2333 18.9567 8.84998 18.29 7.46998C18.1958 7.22133 18.0281 7.00726 17.8093 6.85618C17.5905 6.7051 17.3309 6.62418 17.065 6.62418C16.7991 6.62418 16.5395 6.7051 16.3207 6.85618C16.1019 7.00726 15.9342 7.22133 15.84 7.46998L10.96 17.54C10.91 17.64 10.88 17.74 10.82 17.9C11.76 17.9 12.65 17.9 13.55 17.9C13.62 17.9 13.73 17.78 13.77 17.69C13.95 17.34 14.14 16.99 14.29 16.63C14.325 16.5049 14.4039 16.3966 14.5123 16.325C14.6206 16.2533 14.7512 16.2232 14.88 16.24C16.25 16.24 17.63 16.24 19 16.24C19.5 16.24 19.83 16.34 20 16.84C20.027 17.0338 20.0961 17.2194 20.2025 17.3836C20.3089 17.5479 20.45 17.6869 20.6158 17.7907C20.7817 17.8946 20.9683 17.9609 21.1625 17.985C21.3567 18.009 21.5539 17.9903 21.74 17.93C22.2625 17.891 22.7867 17.8843 23.31 17.91V17.91ZM10.81 21.36C10.81 23.0149 11.4675 24.6021 12.6377 25.7723C13.8079 26.9426 15.3951 27.6 17.05 27.6C18.705 27.6 20.2921 26.9426 21.4623 25.7723C22.6326 24.6021 23.29 23.0149 23.29 21.36C23.16 21.36 23.03 21.36 22.89 21.36C22.32 21.36 21.75 21.36 21.19 21.36C20.83 21.36 20.74 21.49 20.65 21.81C20.5106 22.3543 20.3022 22.8785 20.03 23.37C19.6461 23.9843 19.053 24.4389 18.36 24.65V24.19C18.36 22.78 18.36 21.36 18.36 19.95C18.376 19.7677 18.3538 19.584 18.2949 19.4107C18.2361 19.2374 18.1418 19.0783 18.0181 18.9433C17.8945 18.8084 17.7441 18.7007 17.5766 18.627C17.4091 18.5533 17.2281 18.5152 17.045 18.5152C16.862 18.5152 16.6809 18.5533 16.5134 18.627C16.3459 18.7007 16.1956 18.8084 16.0719 18.9433C15.9482 19.0783 15.854 19.2374 15.7952 19.4107C15.7363 19.584 15.7141 19.7677 15.73 19.95V24.62L15.6 24.7C15.1616 24.3948 14.744 24.0608 14.35 23.7C13.809 23.1651 13.4728 22.4573 13.4 21.7C13.4 21.59 13.25 21.39 13.17 21.39C12.39 21.36 11.61 21.36 10.81 21.36Z" stroke="white" stroke-miterlimit="10"/>
<path d="M23.31 17.91C22.7639 17.8747 22.2161 17.8747 21.67 17.91C21.4839 17.9703 21.2867 17.9891 21.0925 17.965C20.8983 17.941 20.7117 17.8747 20.5458 17.7708C20.38 17.6669 20.2389 17.5279 20.1325 17.3637C20.0261 17.1994 19.957 17.0138 19.93 16.82C19.81 16.32 19.48 16.21 18.93 16.22C17.56 16.22 16.18 16.22 14.81 16.22C14.6812 16.2032 14.5506 16.2333 14.4423 16.305C14.3339 16.3766 14.255 16.4849 14.22 16.61C14.07 16.97 13.88 17.32 13.7 17.67C13.7 17.76 13.55 17.88 13.48 17.88C12.58 17.88 11.69 17.88 10.75 17.88C10.81 17.72 10.84 17.62 10.89 17.52L15.77 7.45C15.8642 7.20135 16.0319 6.98728 16.2507 6.8362C16.4695 6.68512 16.7291 6.6042 16.995 6.6042C17.2609 6.6042 17.5205 6.68512 17.7393 6.8362C17.9581 6.98728 18.1258 7.20135 18.22 7.45C18.8867 8.83 19.5534 10.2133 20.22 11.6C21.15 13.52 22.09 15.45 23.02 17.38C23.16 17.54 23.22 17.69 23.31 17.91ZM17.05 10.91L15.54 14.04H18.54L17.05 10.91Z" fill="white"/>
<path d="M10.81 21.36C11.61 21.36 12.39 21.36 13.17 21.36C13.25 21.36 13.38 21.56 13.4 21.67C13.4728 22.4273 13.809 23.1351 14.35 23.67C14.744 24.0308 15.1616 24.3649 15.6 24.67L15.73 24.59V19.92C15.7141 19.7377 15.7363 19.554 15.7952 19.3807C15.854 19.2074 15.9482 19.0483 16.0719 18.9133C16.1956 18.7784 16.3459 18.6707 16.5134 18.597C16.681 18.5233 16.862 18.4852 17.045 18.4852C17.2281 18.4852 17.4091 18.5233 17.5766 18.597C17.7441 18.6707 17.8945 18.7784 18.0181 18.9133C18.1418 19.0483 18.2361 19.2074 18.2949 19.3807C18.3538 19.554 18.376 19.7377 18.36 19.92C18.36 21.33 18.36 22.75 18.36 24.16V24.62C19.053 24.409 19.6462 23.9543 20.03 23.34C20.3023 22.8485 20.5106 22.3243 20.65 21.78C20.74 21.46 20.83 21.31 21.19 21.33C21.75 21.33 22.32 21.33 22.89 21.33C23.03 21.33 23.16 21.33 23.29 21.33C23.29 22.985 22.6326 24.5721 21.4623 25.7424C20.2921 26.9126 18.705 27.57 17.05 27.57C15.3951 27.57 13.8079 26.9126 12.6377 25.7424C11.4675 24.5721 10.81 22.985 10.81 21.33V21.36Z" fill="white"/>
</g>
<defs>
<clipPath id="clip0_3_10">
<rect width="34.1" height="34.09" fill="white"/>
</clipPath>
</defs>
</svg>
