<svg width="17" height="17" viewBox="0 0 17 17" fill="none" xmlns="http://www.w3.org/2000/svg">
<path d="M11.5633 16.9999C8.77728 14.2194 5.98452 11.4322 3.19176 8.65173C3.0768 8.537 3.12414 8.47626 3.21204 8.38853C5.06487 6.53939 6.91769 4.69699 8.76375 2.84784C9.65636 1.95701 10.549 1.07293 11.4348 0.182101C11.5565 0.060624 11.6241 0.0673727 11.7391 0.182101C12.4153 0.870469 13.105 1.54534 13.788 2.23371C13.9503 2.39568 13.9503 2.39568 13.788 2.55765C11.8405 4.50128 9.89979 6.43815 7.9523 8.38178C7.76296 8.57075 7.78325 8.53025 7.9523 8.70572C9.89303 10.6426 11.8338 12.5795 13.7745 14.5164C13.8827 14.6243 13.8827 14.7346 13.7745 14.847C13.105 15.5152 12.4356 16.1833 11.7729 16.8447C11.7256 16.8919 11.6782 16.9459 11.6241 16.9999H11.5565H11.5633Z" fill="white"/>
</svg>
