<svg width="87" height="87" viewBox="0 0 87 87" fill="none" xmlns="http://www.w3.org/2000/svg">
<rect width="87" height="87" rx="6" fill="#1A1E23"/>
<path d="M54.4932 59.7206C54.6394 59.7828 54.7855 59.8517 54.9334 59.9222C54.4596 59.9861 54.0362 59.9441 53.6297 60.1154C48.425 62.3196 43.2002 62.1818 37.9687 60.2112C37.4244 60.0062 36.8717 59.8785 36.2904 59.9861C35.0959 60.2078 33.8981 60.4044 32.6767 60.4027C32.3558 60.4027 31.9762 60.4077 31.8115 60.7185C31.6284 61.0613 31.9543 61.3082 32.1374 61.5569C36.3173 67.242 41.8915 69.51 48.8249 68.1996C52.7426 67.4587 56.232 65.8157 58.8545 62.6757C59.3081 62.1331 59.9398 61.493 59.6575 60.7908C59.4744 60.3389 59.0292 60.3473 58.5739 60.3708V60.4615C57.2635 60.4615 55.9514 60.4615 54.804 59.8063C55.9514 60.4615 57.2618 60.4615 58.5739 60.4615V60.3708C58.3421 60.3825 58.1069 60.3993 57.9019 60.3607C57.875 60.3557 57.8498 60.3305 57.6718 60.2213C58.5588 60.2935 59.4324 60.3489 60.2959 60.3842C58.7167 58.9495 56.4958 59.4636 54.4949 59.7189L54.4932 59.7206Z" fill="#797F89"/>
<path d="M58.1439 16.6808C62.3137 15.9416 65.6233 16.8942 68.7699 18.6145C69.415 18.9673 69.8485 19.5536 70.1206 20.2307C70.4801 21.1295 70.1173 21.6066 69.1496 21.5545C68.2357 21.5041 67.4209 21.1144 66.6145 20.7431C65.3041 20.14 63.9265 19.804 62.5203 19.5301C61.2334 19.2781 60.2036 19.6309 59.3669 20.6255C57.4585 22.8918 55.5517 25.1581 53.6264 27.411C52.8351 28.3367 51.9145 29.128 50.9434 29.8638C50.4125 30.267 49.9304 30.267 49.3743 29.9108C48.3596 29.2607 47.5129 28.4593 46.9769 27.3757C46.3957 26.2031 46.609 25.0002 47.7161 24.3719C49.4751 23.3706 50.7049 21.8536 52.027 20.4071C53.8381 18.423 56.059 17.1395 58.1473 16.6842L58.1439 16.6808Z" fill="#797F89"/>
<path d="M50.1437 30.524C49.8312 30.524 49.512 30.4181 49.1827 30.2081C48.0017 29.4521 47.1768 28.5768 46.6577 27.5319C45.9605 26.1257 46.3066 24.7632 47.538 24.061C49.0114 23.221 50.0916 22.0215 51.234 20.7497C51.4087 20.5548 51.5851 20.36 51.7632 20.1651C53.5675 18.1894 55.807 16.8286 58.0699 16.3347L58.0834 16.3313C61.8701 15.6593 65.2183 16.2675 68.9412 18.302C69.6132 18.6682 70.1206 19.273 70.4515 20.0962C70.6766 20.6573 70.6682 21.1109 70.428 21.4469C70.1844 21.7863 69.7493 21.9408 69.131 21.9072C68.1818 21.8552 67.3536 21.4738 66.5522 21.1042L66.4649 21.0639C65.1259 20.4473 63.6845 20.118 62.4514 19.8761C61.2854 19.6476 60.39 19.9568 59.6374 20.8505L58.9973 21.6116C57.3307 23.5906 55.6071 25.6368 53.8968 27.6394C53.1862 28.471 52.3159 29.2673 51.1584 30.1443C50.8241 30.398 50.4881 30.524 50.1454 30.524H50.1437ZM58.2127 17.0285C56.1262 17.4855 53.9657 18.8043 52.2857 20.6439C52.1093 20.8371 51.9362 21.0303 51.7615 21.2252C50.6309 22.4818 49.4633 23.7821 47.8891 24.6776C46.9971 25.1866 46.7686 26.1576 47.2927 27.216C47.7514 28.1434 48.4956 28.9263 49.5641 29.61C50.0076 29.894 50.3218 29.8856 50.7267 29.5781C51.8422 28.7331 52.6771 27.9687 53.3542 27.1774C55.0627 25.1782 56.7847 23.132 58.4513 21.1546L59.0914 20.3936C60.0154 19.2965 61.1578 18.9 62.5858 19.1789C63.8609 19.4292 65.3544 19.7703 66.7606 20.4188L66.8479 20.4591C67.6224 20.8169 68.3532 21.1529 69.168 21.1983C69.5124 21.2168 69.761 21.158 69.8484 21.0336C69.9341 20.9144 69.9123 20.6691 69.7896 20.3616C69.5225 19.6947 69.121 19.2108 68.5985 18.9252C65.0285 16.9731 61.8247 16.3884 58.2127 17.0285V17.0285Z" fill="#1A1E23"/>
<path d="M25.493 22.1288C28.8261 20.4589 31.7627 20.049 34.8506 20.7848C36.3861 21.1511 37.9334 21.3174 39.5193 20.9931C40.6315 20.7647 41.6882 21.5425 42.0141 22.7034C42.3871 24.0323 42.1653 25.3191 41.7167 26.5892C41.4782 27.2646 40.9423 27.3351 40.3375 27.3469C37.6646 27.3973 35.1026 26.7068 32.512 26.2028C31.0051 25.9105 29.5031 25.5963 27.9979 25.3007C26.842 25.0739 25.9096 25.4468 25.1267 26.3238C24.0263 27.5552 23.057 28.869 22.3111 30.3474C21.9734 31.016 21.6223 31.6847 21.0292 32.1769C20.3639 32.7313 19.8683 32.612 19.5575 31.7955C19.3089 31.1437 19.2602 30.4532 19.4954 29.7997C20.7201 26.3826 22.9108 23.745 25.4947 22.1305L25.493 22.1288Z" fill="#797F89"/>
<path d="M31.6872 28.5045C34.6238 28.5129 37.0632 30.2248 38.1938 33.1514C38.3752 33.6201 38.3551 33.9712 37.9586 34.2887C37.8192 34.3996 37.6948 34.5306 37.5638 34.6516C36.5614 35.5767 36.5026 36.5483 37.3874 37.5664C37.6629 37.8822 37.9334 38.2065 37.6041 38.5929C37.2396 39.0213 36.8784 38.6836 36.576 38.4585C35.4235 37.5983 34.1887 36.9062 32.8464 36.377C29.6863 35.1304 26.6757 35.7554 23.7021 37.0154C23.4064 37.1414 23.1225 37.2926 22.8352 37.4387C22.5311 37.5933 22.2321 37.7075 21.9919 37.3413C21.7667 36.9986 21.7852 36.6609 22.0675 36.3635C22.6639 35.7369 23.3896 35.2732 24.1137 34.8146C24.5018 34.5693 24.7706 34.2988 24.7387 33.7898C24.6362 32.1971 25.4661 31.0665 26.6471 30.1576C28.0751 29.0589 29.6846 28.4373 31.6905 28.5062L31.6872 28.5045Z" fill="#797F89"/>
<path d="M43.0944 33.6084C43.0239 34.8516 42.9584 36.0965 42.8828 37.3397C42.8441 37.9731 42.5484 38.4871 42.1301 38.9542C41.5253 39.6279 40.7727 40.1083 40.0301 40.5989C38.503 41.6103 37.794 42.9627 38.2174 44.7989C38.3417 45.3399 38.2056 45.7464 37.6764 45.906C37.0616 46.0908 36.8549 45.6036 36.7172 45.1551C36.2921 43.764 36.3156 42.4167 37.1876 41.1684C37.747 40.3671 38.3921 39.5943 39.2506 39.1793C40.9474 38.3611 41.3876 36.9499 41.4665 35.2599C41.5052 34.4081 41.6228 33.558 41.7269 32.7096C41.784 32.251 41.826 31.7033 42.4628 31.7201C43.123 31.7369 43.081 32.2879 43.0944 32.7533C43.1028 33.0389 43.0944 33.3245 43.0944 33.6101V33.6084Z" fill="#797F89"/>
<path d="M53.3726 43.5169C53.307 43.9134 53.2751 44.3838 53.1441 44.824C52.9996 45.3145 52.9072 45.9916 52.1764 45.8723C51.3767 45.7396 51.4523 45.0625 51.6086 44.5081C51.9446 43.3069 51.543 42.3258 50.777 41.4589C50.451 41.091 50.0159 40.8189 49.6178 40.5181C49.1071 40.1317 48.5678 39.7806 48.0688 39.3774C47.2725 38.734 46.8895 37.857 46.8491 36.854C46.7954 35.5016 46.8575 34.1459 46.6643 32.7968C46.5988 32.3399 46.6072 31.7569 47.2154 31.6897C47.8924 31.6141 47.9714 32.2004 48.0285 32.7112C48.1847 34.0904 48.3544 35.4697 48.4787 36.8524C48.5476 37.6117 48.9659 38.0872 49.5691 38.4635C50.4191 38.9944 51.2205 39.5908 51.9177 40.3132C52.761 41.1885 53.2718 42.2267 53.3726 43.5169Z" fill="#797F89"/>
<path d="M75.1488 28.9615C72.5011 20.968 72.0576 26.4767 72.0576 26.4767C72.0576 26.4767 75.058 34.0703 70.2566 32.518C69.9391 32.4155 69.42 32.2576 68.7328 32.0527V26.1559C68.7328 24.5649 67.4325 23.2646 65.8416 23.2646H55.3063C53.1055 23.2646 51.2541 24.8303 50.8089 26.9035C34.8976 22.3843 15.1963 16.8503 15.1963 16.8503L15.7994 19.1687C15.7994 19.1687 41.2867 29.2 50.7064 32.3719V34.5727C50.7064 39.8008 54.9837 44.0781 60.2119 44.0781C64.8134 44.0781 68.5917 40.3804 68.7278 35.8091C69.5745 35.9049 70.0752 35.9536 70.0752 35.9536C70.0752 35.9536 77.7981 36.9566 75.1504 28.9631L75.1488 28.9615Z" fill="#797F89"/>
<path d="M60.2102 44.4309C54.7737 44.4309 50.3503 40.0074 50.3503 34.571V32.6238C40.8398 29.3982 15.9204 19.5954 15.6684 19.4963L15.5004 19.4308L14.6957 16.3396L15.2904 16.5076C15.4853 16.563 34.8826 22.0113 50.5536 26.4616C51.1718 24.3818 53.1122 22.9084 55.3046 22.9084H65.8399C67.6308 22.9084 69.0857 24.365 69.0857 26.1542V31.7872C69.6619 31.9602 70.0903 32.0913 70.3641 32.1803C71.2613 32.471 71.8913 32.4323 72.234 32.0661C73.1849 31.053 72.1886 27.7821 71.725 26.6078L71.6947 26.5305L71.7014 26.4482C71.7518 25.8282 71.9551 24.3734 72.7649 24.2759C73.3394 24.2054 74.1106 24.6976 75.4848 28.8489C76.3416 31.4378 76.2324 33.4101 75.1589 34.7104C73.494 36.7264 70.1693 36.3215 70.0265 36.303C70.0265 36.303 69.672 36.2678 69.0605 36.2006C68.9025 38.3627 67.9634 40.377 66.3893 41.9092C64.7194 43.5354 62.5236 44.4309 60.2085 44.4309H60.2102ZM16.0968 18.8999C18.3278 19.7769 41.9134 29.0337 50.819 32.0308L51.061 32.1114V34.5676C51.061 39.6126 55.1652 43.7186 60.2119 43.7186C64.5816 43.7186 68.2423 40.1637 68.3717 35.794L68.3834 35.4093L68.7665 35.453C69.6098 35.547 70.1071 35.5974 70.1088 35.5974C70.1508 35.6025 73.2017 35.9704 74.6145 34.2551C75.5201 33.1564 75.5873 31.4109 74.8128 29.0706C73.4957 25.0924 72.8724 24.9815 72.8472 24.9798C72.7128 25.0403 72.491 25.6905 72.4188 26.423C72.7061 27.1672 74.1206 31.0917 72.7548 32.5482C72.2071 33.1329 71.3302 33.2354 70.1491 32.8523C69.8434 32.7532 69.3326 32.597 68.6337 32.3886L68.3801 32.313V26.1508C68.3801 24.753 67.2427 23.614 65.8433 23.614H55.308C53.3206 23.614 51.575 25.0269 51.1567 26.9723L51.0778 27.3436L50.7132 27.2394C36.5222 23.2091 19.1124 18.3136 15.697 17.3543L16.0985 18.8982L16.0968 18.8999Z" fill="#1A1E23"/>
<path d="M15.2013 25.3377C13.7801 24.8841 11.7019 25.7107 12.0379 22.8312C12.2714 20.8253 13.8221 21.5762 14.7797 21.0907C14.7578 21.0487 14.7511 21.005 14.7293 20.9933C13.8809 20.5934 12.5604 20.7362 12.2479 19.7702C11.8245 18.4649 12.0497 17.0117 12.1521 15.6273C12.1958 15.0444 12.7368 14.9369 13.2273 15.0293C15.0165 15.3653 16.4613 16.217 17.1216 17.9978C17.5668 19.199 17.8809 20.4338 17.6525 21.7644C17.4979 22.6699 17.9616 23.5082 18.2455 24.3432C18.6 25.3881 18.3194 26.1626 17.429 26.7456C15.9053 27.7435 14.3647 28.7145 12.851 29.7259C12.2546 30.1241 12.1001 29.8922 12.0967 29.3076C12.0967 29.2723 12.0967 29.2353 12.095 29.2001C12.0043 27.5234 12.753 26.362 14.3412 25.7157C14.6318 25.5981 14.9157 25.4637 15.203 25.3377H15.2013Z" fill="#797F89"/>
<path d="M74.2046 20.8472C76.5482 21.3814 76.7649 21.5897 76.5767 23.4965C76.3634 25.6587 74.5473 24.3735 73.4267 24.9514C73.9845 25.2152 74.4919 25.5125 75.0362 25.7024C76.1803 26.1005 76.6843 26.8733 76.5969 28.0711C76.5717 28.4256 76.6087 28.7852 76.6137 29.1413C76.6171 29.3513 76.6691 29.5949 76.4575 29.7276C76.234 29.8687 76.0391 29.7075 75.8896 29.5664C74.8631 28.6004 73.5628 28.0443 72.4255 27.2463C70.6984 26.0333 70.4027 25.0387 71.2763 23.1219C71.6947 22.2046 71.777 21.289 71.6527 20.3062C71.3469 17.8904 73.5914 15.2393 76.0022 15.0881C76.4793 15.0579 76.5583 15.3149 76.5616 15.661C76.5717 16.7681 76.5784 17.8752 76.5566 18.9807C76.5431 19.6157 76.1937 20.0424 75.604 20.2776C75.2109 20.4339 74.8211 20.5952 74.2012 20.8455L74.2046 20.8472Z" fill="#797F89"/>
<path d="M44.4013 52.6982H46.7953C50.1453 52.6982 52.8652 55.4182 52.8652 58.7681V67.8636C52.8652 71.8738 49.6093 75.1313 45.5975 75.1313C41.5873 75.1313 38.3298 71.8754 38.3298 67.8636V58.7681C38.3298 55.4182 41.0497 52.6982 44.3997 52.6982H44.4013Z" fill="#797F89"/>
<path d="M46.1032 75.8419H45.0969C40.9758 75.8419 37.6226 72.4886 37.6226 68.3675V58.348C37.6226 54.8419 40.4752 51.9875 43.983 51.9875H47.2187C50.7249 51.9875 53.5792 54.8402 53.5792 58.348V68.3675C53.5792 72.4886 50.2259 75.8419 46.1049 75.8419H46.1032ZM43.983 53.4088C41.2598 53.4088 39.0438 55.6248 39.0438 58.348V68.3675C39.0438 71.7057 41.7587 74.4206 45.0969 74.4206H46.1032C49.4414 74.4206 52.1562 71.7057 52.1562 68.3675V58.348C52.1562 55.6248 49.9403 53.4088 47.217 53.4088H43.9814H43.983Z" fill="#1A1E23"/>
<path d="M72.8136 49.6625C72.5314 50.7277 72.4154 51.8297 72.0878 52.8865C71.4343 54.9982 70.5624 56.9907 69.0403 58.6388C67.2427 60.5859 65.005 61.2461 62.4144 60.9589C57.8314 60.4498 53.5675 58.8723 49.3574 57.11C48.2251 56.6362 47.1079 56.1221 46.0042 55.5862C45.6077 55.3947 45.2952 55.4132 44.9088 55.5997C41.8915 57.0529 38.8054 58.3431 35.6117 59.3595C32.9791 60.1961 30.3197 60.9101 27.5359 61.0126C24.9185 61.1067 22.884 59.9962 21.3266 57.9685C19.6265 55.7559 18.7697 53.1855 18.306 50.4673C18.2254 49.9952 18.1262 49.5214 18.0977 49.0443C18.0557 48.3488 18.432 47.8801 19.0116 47.8179C19.6416 47.7507 20.0851 48.1085 20.2346 48.8175C20.327 49.2526 20.3808 49.6961 20.4934 50.1245C21.6442 54.4875 25.4494 55.1091 28.5322 53.5786C30.1349 52.7823 31.3848 51.5223 32.7154 50.3715C33.6175 49.5903 34.5012 48.7839 35.5294 48.1707C38.7667 46.2421 42.2258 46.9073 44.5426 49.8961C44.771 50.1917 44.9978 50.4941 45.1776 50.8201C45.3876 51.2014 45.5136 51.2518 45.7572 50.8335C46.3166 49.8709 47.034 49.0258 47.9378 48.3706C50.3604 46.6201 53.1929 46.6419 55.7582 48.3908C57.235 49.3971 58.5017 50.6554 59.8608 51.8045C60.8016 52.6009 61.7726 53.3485 62.9302 53.8121C66.5606 55.2721 69.7123 53.6038 70.5406 49.7785C70.5977 49.5181 70.6313 49.2526 70.6716 48.9889C70.7539 48.4445 70.9522 47.9741 71.5435 47.8364C72.1315 47.7003 72.5364 47.9893 72.8186 48.4865V49.6609L72.8136 49.6625Z" fill="#797F89"/>
</svg>
