<svg width="22" height="18" viewBox="0 0 22 18" fill="none" xmlns="http://www.w3.org/2000/svg">
<g clip-path="url(#clip0_159_14)">
<path d="M9.08537 9.4003C9.08537 10.1065 8.66542 10.6449 8.02204 10.7444C7.68688 10.7965 7.39813 10.6698 7.14948 10.4492C6.55938 9.92534 6.56855 8.85327 7.16438 8.33518C7.68344 7.88308 8.41391 7.97165 8.81553 8.53489C9.00631 8.80175 9.08537 9.05587 9.08537 9.4003Z" fill="#86868D"/>
<path d="M15.4447 9.4003C15.4447 10.1065 15.0248 10.6449 14.3814 10.7444C14.0463 10.7965 13.7575 10.6698 13.5089 10.4492C12.9188 9.92534 12.9279 8.85327 13.5238 8.33518C14.0428 7.88308 14.7733 7.97165 15.1749 8.53489C15.3657 8.80175 15.4447 9.05587 15.4447 9.4003Z" fill="#86868D"/>
<path d="M0 14.3961C0.0532813 13.9168 0.107708 13.4375 0.160417 12.9581C0.464063 10.194 0.999167 7.48434 2.05161 4.89911C2.31286 4.25714 2.61937 3.63601 2.98318 3.0473C3.17797 2.73181 3.47359 2.50374 3.75318 2.26872C4.93281 1.27827 6.2763 0.57957 7.70115 0.0255904C7.83464 -0.026508 7.89594 0.00706653 7.94063 0.137891C8.04146 0.4308 8.14401 0.724288 8.26203 1.01025C8.33021 1.17523 8.29698 1.2499 8.12854 1.31358C7.21417 1.65916 6.34219 2.09216 5.5212 2.62704C5.40318 2.70403 5.28802 2.78565 5.17974 2.88174C7.09443 2.38044 9.02917 2.07248 11.008 2.07364C12.98 2.07479 14.9079 2.38333 16.814 2.88348C16.4278 2.5732 16.0073 2.32197 15.5753 2.08927C15.0253 1.79288 14.4616 1.52718 13.8738 1.31647C13.711 1.25801 13.6618 1.18565 13.7317 1.01488C13.8491 0.72834 13.9477 0.433694 14.0519 0.141943C14.0903 0.0348523 14.1327 -0.0340333 14.2696 0.0180651C15.9156 0.65135 17.4482 1.47566 18.7327 2.7156C19.1515 3.12023 19.3795 3.65338 19.6064 4.16973C20.5173 6.24324 21.183 8.39317 21.4987 10.6461C21.6729 11.8884 21.8488 13.1301 21.9736 14.3781C21.9771 14.4134 21.9914 14.4476 22.0006 14.4823V14.9587C21.9605 15.0091 21.9169 15.0571 21.8814 15.1104C21.4786 15.7182 20.9745 16.2247 20.3781 16.6386C18.9492 17.6302 17.3319 17.9492 15.6372 17.9984C15.502 18.0024 15.4315 17.9283 15.3633 17.827C15.0333 17.3373 14.6919 16.8551 14.3722 16.359C14.2599 16.1842 14.151 16.1454 13.9522 16.1975C12.9777 16.4528 11.9797 16.5553 10.9765 16.5529C9.97333 16.5506 8.97646 16.4458 8.0025 16.1877C7.83635 16.1437 7.74583 16.1848 7.6513 16.3283C7.31901 16.8337 6.96953 17.3275 6.63323 17.8299C6.55245 17.9509 6.45964 18.0076 6.31411 17.9984C5.86495 17.9683 5.41464 17.9503 4.96833 17.8797C2.93505 17.5573 1.20198 16.7185 0 14.9587V14.3955L0 14.3961ZM11.1713 3.42877C10.5818 3.41488 9.99854 3.46987 9.41703 3.55728C7.4737 3.85077 5.58021 4.35612 3.69474 4.90084C3.54349 4.94484 3.45125 5.01777 3.38937 5.16654C2.76375 6.66119 2.30885 8.20851 1.99318 9.79751C1.73193 11.1133 1.54917 12.4412 1.42141 13.7773C1.34292 14.6033 1.34177 14.5992 1.95193 15.1341C3.02042 16.0702 4.27911 16.5199 5.67359 16.6311C5.7813 16.6398 5.84833 16.5969 5.90505 16.5118C6.04141 16.3087 6.1726 16.1008 6.32328 15.9087C6.4476 15.75 6.40063 15.6875 6.23219 15.6221C5.48167 15.3304 4.77641 14.9483 4.09406 14.5205C3.91359 14.4076 3.90271 14.3156 4.02531 14.1512C4.18859 13.9324 4.33927 13.702 4.47391 13.4647C4.57932 13.2783 4.67443 13.2806 4.84344 13.39C5.83172 14.0308 6.89276 14.5118 8.03401 14.8001C9.56943 15.1874 11.1169 15.3118 12.6918 15.0629C14.3206 14.8059 15.8354 14.2589 17.219 13.3512C17.3376 13.2736 17.4046 13.2904 17.478 13.4074C17.639 13.6632 17.8005 13.9197 17.9793 14.1634C18.0973 14.3243 18.0772 14.4094 17.9082 14.5165C17.2207 14.9506 16.5057 15.3292 15.7506 15.6279C15.6063 15.6852 15.5501 15.7373 15.6641 15.8861C15.8171 16.0858 15.9529 16.2994 16.0886 16.5113C16.1517 16.6091 16.2284 16.645 16.3407 16.6288C16.6381 16.5854 16.9383 16.5622 17.2322 16.5032C18.5127 16.2467 19.6121 15.6557 20.5007 14.6814C20.5923 14.5807 20.6359 14.4806 20.621 14.3335C20.5121 13.2939 20.3638 12.2594 20.2314 11.2227C19.9707 9.18333 19.399 7.23253 18.6559 5.32458C18.5459 5.04209 18.3763 4.88695 18.1053 4.77812C15.8772 3.88434 13.5558 3.48898 11.1702 3.42877H11.1713Z" fill="#86868D"/>
</g>
<defs>
<clipPath id="clip0_159_14">
<rect width="22" height="18" fill="white"/>
</clipPath>
</defs>
</svg>
