<svg width="14" height="15" viewBox="0 0 14 15" fill="none" xmlns="http://www.w3.org/2000/svg">
<g clip-path="url(#clip0_106_78)">
<path d="M7.00182 14.9987C5.4899 14.9987 3.97813 14.9987 2.46649 14.9987C1.12076 14.9987 0.00119922 13.8019 0.000366211 12.3659C0.000366211 9.1263 0.000366211 5.88682 0.000366211 2.64749C0.000366211 1.21688 1.11951 0.0147359 2.4515 0.0147359C4.12946 0.012951 5.80756 0.012951 7.4858 0.0147359C7.73945 0.0147359 7.93729 0.176269 7.99269 0.420357C8.02045 0.537377 8.01208 0.660882 7.96883 0.772378C7.92558 0.883874 7.84978 0.977359 7.75278 1.03883C7.65407 1.10086 7.54702 1.1071 7.43665 1.1071C5.83644 1.1071 4.23636 1.1071 2.63642 1.1071C2.09747 1.1071 1.64014 1.29497 1.30944 1.77645C1.09577 2.08569 1.02122 2.44044 1.0208 2.81393C1.01858 5.94735 1.01858 9.08108 1.0208 12.2151C1.0208 13.0536 1.47354 13.6876 2.18035 13.8581C2.32723 13.8929 2.47725 13.9103 2.62768 13.9099C5.53739 13.9126 8.44682 13.9126 11.356 13.9099C12.0265 13.9099 12.5405 13.6207 12.835 12.9505C12.9462 12.6979 12.9678 12.4253 12.9683 12.1522C12.9708 10.4324 12.9708 8.71249 12.9683 6.99242C12.9683 6.75637 13.0561 6.57877 13.2531 6.48015C13.3394 6.43258 13.4368 6.41295 13.5333 6.42365C13.6298 6.43434 13.7213 6.47491 13.7967 6.54039C13.8562 6.5861 13.9046 6.64642 13.9379 6.71629C13.9711 6.78617 13.9883 6.86356 13.9879 6.942C13.9879 8.81215 14.017 10.6832 13.9762 12.552C13.9516 13.6738 13.1432 14.6524 12.0915 14.9313C11.905 14.9805 11.7135 15.005 11.5213 15.004C10.015 14.9987 8.50846 14.9969 7.00182 14.9987Z" fill="#8C8E9F"/>
<path d="M5.25249 11.2579H4.08378C3.66727 11.2579 3.49234 11.0669 3.49192 10.6153C3.49192 9.79204 3.49776 8.9683 3.48859 8.14456C3.48452 8.03409 3.50286 7.92399 3.54233 7.82184C3.58181 7.71969 3.64149 7.62792 3.71725 7.55286C5.3469 5.81257 6.97447 4.0699 8.59995 2.32485C9.24637 1.6323 9.89278 0.939751 10.5392 0.247203C10.8462 -0.0807748 11.1223 -0.0816672 11.4297 0.247203C12.2091 1.08016 12.9878 1.91432 13.7659 2.74966C14.0783 3.08478 14.0778 3.37973 13.7659 3.71574C11.489 6.15513 9.21208 8.59451 6.93518 11.0339C6.87027 11.1094 6.79077 11.1689 6.70222 11.2081C6.61367 11.2473 6.51819 11.2654 6.42246 11.261C6.03302 11.2499 5.64193 11.2579 5.25249 11.2579ZM5.40368 10.1655C5.64776 10.1655 5.89183 10.1629 6.1359 10.1655C6.17699 10.1683 6.21814 10.1613 6.25643 10.1451C6.29472 10.1289 6.32922 10.1039 6.35748 10.0718C7.9502 8.36277 9.54431 6.65535 11.1398 4.94956C11.2181 4.86523 11.231 4.80989 11.1452 4.71931C10.624 4.16777 10.1062 3.61311 9.59165 3.05532C9.51584 2.97366 9.4667 2.97054 9.3884 3.05532C7.79235 4.76825 6.19574 6.47998 4.59858 8.19053C4.57142 8.21602 4.54967 8.24745 4.5348 8.2827C4.51993 8.31796 4.51228 8.35621 4.51236 8.3949C4.51486 8.93439 4.51569 9.47433 4.51236 10.0143C4.51236 10.1316 4.55193 10.17 4.65856 10.1673C4.90513 10.1615 5.1542 10.1655 5.40368 10.1655ZM12.7117 3.21418C12.6931 3.18529 12.6728 3.15771 12.6509 3.13163C12.1261 2.56819 11.6011 2.0049 11.0761 1.44176C11.0103 1.37081 10.9615 1.36813 10.8957 1.44176C10.7039 1.65327 10.5095 1.86151 10.3126 2.06648C10.2426 2.13922 10.2535 2.19098 10.3176 2.2597C10.8452 2.82075 11.3707 3.3836 11.8941 3.94823C11.9599 4.01918 12.0082 4.0223 12.0744 3.94823C12.2665 3.73672 12.463 3.53011 12.6576 3.32351C12.6736 3.31076 12.6868 3.29433 12.6962 3.27541C12.7055 3.2565 12.7108 3.23557 12.7117 3.21418Z" fill="#8C8E9F"/>
</g>
<defs>
<clipPath id="clip0_106_78">
<rect width="14" height="15" fill="white"/>
</clipPath>
</defs>
</svg>
