<svg width="19" height="33" viewBox="0 0 19 33" fill="none" xmlns="http://www.w3.org/2000/svg">
<g clip-path="url(#clip0_106_83)">
<path d="M18.0725 24.5619C18.1111 24.6604 18.0412 24.7482 17.9359 24.8376C15.7809 26.6554 13.6269 28.4733 11.4739 30.2911C10.7318 30.9228 9.97795 31.5499 9.23588 32.1847C9.08747 32.3074 9.0043 32.3271 8.8455 32.1847C5.95736 29.7579 3.06579 27.3326 0.170725 24.9088C0.109201 24.8672 0.060788 24.8083 0.0312971 24.7392C0.00180614 24.6702 -0.00752329 24.5939 0.00448396 24.5195C0.118763 23.5455 0.224131 22.5699 0.332474 21.5943C0.445269 20.5935 0.557112 19.5922 0.667928 18.5904C0.792596 17.4653 0.918259 16.3388 1.04491 15.2107C1.15473 14.2149 1.26353 13.2202 1.37137 12.2264C1.49011 11.1448 1.60935 10.0637 1.72908 8.98314C1.74675 8.88494 1.79333 8.79458 1.86263 8.72411L7.38215 1.96324C7.88676 1.34518 8.39288 0.730144 8.89006 0.107538C9.00286 -0.0333441 9.06367 -0.0439482 9.17943 0.107538C10.902 2.22834 12.6286 4.34563 14.3591 6.45937C14.9528 7.18347 15.5376 7.91057 16.1401 8.62862C16.273 8.78204 16.3546 8.97468 16.3731 9.17857C16.5561 10.8863 16.7427 12.593 16.9326 14.2988C17.0677 15.5106 17.2101 16.7225 17.3452 17.9344C17.4832 19.1796 17.6153 20.4249 17.7519 21.6701C17.8528 22.6184 17.9656 23.5667 18.0725 24.5619ZM9.06073 7.0335C8.99822 7.09024 8.95159 7.16292 8.92565 7.24409C8.69857 7.72884 8.48039 8.21506 8.24887 8.70133C7.11202 11.1463 5.97417 13.5918 4.83534 16.0378C4.80395 16.0989 4.78504 16.1658 4.77968 16.2345C4.77433 16.3032 4.78264 16.3724 4.80418 16.4378C5.56802 18.8908 6.3294 21.3449 7.08829 23.8C7.09786 23.8645 7.13176 23.9227 7.18279 23.962C7.23382 24.0014 7.29791 24.0187 7.36135 24.0105C8.48633 24.0044 9.61135 24.0044 10.7363 24.0105C10.7936 24.0192 10.8518 24.0045 10.8985 23.9697C10.9452 23.9348 10.9766 23.8825 10.9857 23.8242C11.1015 23.4227 11.2291 23.0259 11.3522 22.6274C11.9865 20.5854 12.6216 18.5429 13.2579 16.4999C13.2861 16.4167 13.2974 16.3285 13.291 16.2407C13.2847 16.1529 13.2607 16.0674 13.2207 15.9894C11.9177 13.197 10.619 10.4031 9.32487 7.60764C9.23434 7.4198 9.14977 7.23498 9.06073 7.0335ZM4.40198 15.1168C4.44354 15.038 4.45986 15.0108 4.47322 14.982C5.84951 12.0058 7.23028 9.03157 8.61548 6.05942C8.65486 5.96841 8.67364 5.86957 8.67041 5.77013C8.67041 4.44918 8.67041 3.1282 8.67041 1.80724C8.67041 1.75574 8.70006 1.69059 8.63179 1.64362C8.60804 1.66938 8.58579 1.69365 8.56649 1.71789C6.63117 4.08915 4.69484 6.45884 2.75754 8.82707C2.69574 8.89286 2.65395 8.97552 2.6371 9.06503C2.62025 9.15453 2.6291 9.24705 2.66261 9.33153C3.10785 10.8009 3.54414 12.2749 3.98493 13.7458C4.11108 14.1882 4.24915 14.629 4.39756 15.1153L4.40198 15.1168ZM9.44807 1.63453C9.43916 1.73299 9.43321 1.7724 9.43321 1.81027C9.43321 3.15143 9.43321 4.49158 9.43321 5.83071C9.43638 5.95016 9.46638 6.06725 9.52083 6.17304C10.8655 9.06743 12.2106 11.9619 13.5562 14.8563C13.5889 14.9244 13.6022 15.0077 13.6779 15.0517C13.7358 15.0138 13.7373 14.9502 13.7536 14.9002C14.3126 13.0369 14.8726 11.1731 15.4336 9.30882C15.4633 9.2302 15.4702 9.14449 15.4533 9.06199C15.4365 8.9795 15.3966 8.90375 15.3386 8.84379C13.6695 6.80984 12.0048 4.7718 10.3445 2.72977L9.44807 1.63453ZM13.7877 17.2134C13.738 17.2664 13.7062 17.3344 13.6972 17.4072C13.0353 19.5371 12.3729 21.6665 11.7099 23.7954C11.655 23.9741 11.7025 24.012 11.8717 24.0105C13.4815 24.0105 15.0927 24.0105 16.7055 24.0105C16.9459 24.0105 16.9445 24.0105 16.8436 23.7909C15.9531 21.8801 15.066 19.9689 14.1825 18.0571C14.0444 17.7739 13.9124 17.4951 13.7788 17.2103L13.7877 17.2134ZM4.32038 17.1679L3.99087 17.8814C3.07862 19.8456 2.16637 21.8109 1.25412 23.7772C1.14875 24.0059 1.15171 24.009 1.40253 24.009H6.19781C6.43676 24.009 6.43677 24.009 6.36108 23.7666C5.96531 22.478 5.56557 21.1889 5.16188 19.8992C4.88138 19.0009 4.6083 18.1147 4.31147 17.1649L4.32038 17.1679ZM16.6388 24.8255C16.6233 24.8083 16.6036 24.7955 16.5817 24.7886C16.5598 24.7816 16.5365 24.7808 16.5141 24.7861C14.8677 24.7861 13.2228 24.7861 11.5793 24.7861C11.4398 24.7861 11.3894 24.8452 11.3508 24.9694C10.8086 26.7226 10.2644 28.4743 9.71823 30.2244C9.69003 30.3153 9.66924 30.4077 9.62916 30.5592L16.6388 24.8255ZM1.45891 24.7861L1.4471 24.827L8.41214 30.5214C8.42365 30.4914 8.42834 30.4592 8.42576 30.4272C8.42319 30.3952 8.41341 30.3642 8.39728 30.3366C7.84815 28.5591 7.29908 26.7817 6.74994 25.0042C6.73861 24.935 6.70124 24.873 6.64581 24.8314C6.59037 24.7898 6.52126 24.772 6.45311 24.7816C4.84133 24.7816 3.22951 24.7816 1.61624 24.7816L1.45891 24.7861ZM2.40433 10.9934H2.35984C1.92152 14.7532 1.48322 18.5136 1.04491 22.2745C1.09701 22.2353 1.13833 22.1831 1.16506 22.123C1.39362 21.6312 1.62173 21.1394 1.8493 20.6476C2.52607 19.1903 3.20378 17.7339 3.88253 16.2787C3.91585 16.2113 3.9353 16.1377 3.93964 16.0624C3.94398 15.9871 3.93311 15.9118 3.90775 15.8409C3.75934 15.394 3.6243 14.9441 3.48628 14.4957L2.40433 10.9934ZM15.7305 11.013L15.686 10.9994C15.6592 11.0782 15.631 11.1509 15.6058 11.2358C15.1294 12.7718 14.6559 14.3094 14.1751 15.8424C14.1512 15.9133 14.1418 15.9885 14.1474 16.0633C14.153 16.138 14.1736 16.2108 14.2078 16.2772C15.118 18.2222 16.0248 20.1688 16.9281 22.1169C16.9638 22.1942 16.9979 22.2684 17.0321 22.3518L17.0513 22.3396C16.6051 18.5626 16.1624 14.786 15.7231 11.01L15.7305 11.013ZM9.02804 30.0593C9.06218 29.9851 9.07708 29.9624 9.0845 29.9382C9.599 28.2739 10.1145 26.6105 10.631 24.9482C10.677 24.7967 10.631 24.7801 10.5033 24.7801C9.54756 24.7801 8.59172 24.7801 7.63593 24.7801C7.39254 24.7801 7.39103 24.7801 7.46672 25.0255L8.56207 28.5536L9.02804 30.0593Z" fill="#8C8E9F"/>
</g>
<defs>
<clipPath id="clip0_106_83">
<rect width="18.0828" height="32.2907" fill="white"/>
</clipPath>
</defs>
</svg>
