<svg width="27" height="29" viewBox="0 0 27 29" fill="none" xmlns="http://www.w3.org/2000/svg">
<path d="M4.71934 28.4561C4.02127 28.3673 3.33428 28.2065 2.66935 27.9761C2.18299 27.821 1.73299 27.5691 1.34635 27.2358C0.959714 26.9024 0.644398 26.4944 0.419352 26.0361C0.180024 25.5795 0.0396189 25.0775 0.0072427 24.563C-0.0251335 24.0484 0.0512854 23.5328 0.231486 23.0497C0.411686 22.5667 0.69161 22.127 1.05308 21.7594C1.41455 21.3918 1.84945 21.1045 2.32939 20.9161L2.85935 20.6961C2.53339 20.4502 2.27208 20.1287 2.09788 19.7594C1.92368 19.3901 1.84181 18.984 1.85935 18.5761C1.82991 18.1666 1.90649 17.7564 2.08164 17.3851C2.2568 17.0138 2.52462 16.6938 2.85935 16.4561C1.97137 16.0553 1.26021 15.3441 0.859354 14.4561C0.328864 13.4614 0.139407 12.3201 0.320048 11.2074C0.500688 10.0946 1.04145 9.07193 1.85935 8.29613C2.66833 7.58351 3.67212 7.12934 4.74143 6.99211C5.81075 6.85488 6.89665 7.04085 7.85935 7.52611C8.17325 7.66499 8.52151 7.70678 8.85935 7.6461C9.6862 7.55644 10.497 7.35461 11.2694 7.04613C11.5594 6.93613 11.5794 6.9461 11.5794 7.2661C11.5794 8.1561 11.5794 9.04613 11.5794 9.92613C11.5864 9.96896 11.5847 10.0127 11.5743 10.0549C11.5638 10.097 11.545 10.1366 11.5188 10.1712C11.4926 10.2058 11.4596 10.2347 11.4219 10.2562C11.3842 10.2777 11.3425 10.2913 11.2994 10.2961L10.5794 10.4961C10.4294 10.4961 10.3694 10.5761 10.4194 10.7361C10.6038 11.4162 10.6451 12.1272 10.5405 12.8241C10.4359 13.521 10.1877 14.1885 9.81169 14.7845C9.43567 15.3805 8.94 15.892 8.35606 16.2864C7.77212 16.6809 7.11262 16.9498 6.41935 17.0761C6.23935 17.0761 6.05938 17.1761 5.88938 17.2261C5.68396 17.3038 5.50356 17.436 5.36753 17.6084C5.2315 17.7809 5.14498 17.9871 5.11723 18.2049C5.08948 18.4228 5.12154 18.6442 5.21 18.8452C5.29847 19.0462 5.43997 19.2194 5.61936 19.3461C6.07799 19.6206 6.57765 19.8198 7.09934 19.9361C7.91856 20.1242 8.72121 20.3784 9.49937 20.6961C10.0979 20.9254 10.6072 21.3405 10.9527 21.8804C11.2983 22.4202 11.4618 23.0565 11.4194 23.6961C11.4638 24.7671 11.1508 25.8226 10.5294 26.6961C9.85224 27.5601 8.88018 28.144 7.79936 28.3361C7.49936 28.4061 7.18937 28.4461 6.87937 28.4961L4.71934 28.4561ZM3.61936 12.1661C3.59699 12.3655 3.59699 12.5667 3.61936 12.7661C3.65336 12.9936 3.73242 13.212 3.85185 13.4086C3.97128 13.6052 4.12869 13.776 4.31492 13.9111C4.50115 14.0461 4.71246 14.1426 4.93644 14.195C5.16042 14.2474 5.39257 14.2545 5.61936 14.2161C5.96019 14.2269 6.29485 14.1236 6.57023 13.9225C6.84561 13.7214 7.04595 13.4341 7.13938 13.1061C7.37572 12.3961 7.34368 11.6241 7.04936 10.9361C6.92927 10.6296 6.72561 10.3629 6.46153 10.1663C6.19744 9.96974 5.8835 9.85116 5.5554 9.82408C5.2273 9.797 4.89819 9.8625 4.60545 10.0131C4.31271 10.1637 4.06812 10.3934 3.89939 10.6761C3.66239 11.1347 3.56501 11.6528 3.61936 12.1661ZM5.89939 25.6661C6.34885 25.6969 6.80003 25.6426 7.22935 25.5061C7.53786 25.4171 7.80609 25.224 7.98838 24.9597C8.17068 24.6954 8.25579 24.3761 8.22935 24.0561C8.25139 23.7487 8.16271 23.4437 7.97929 23.196C7.79586 22.9484 7.5298 22.7746 7.22935 22.7061C6.27235 22.4058 5.24634 22.4058 4.28935 22.7061C3.99198 22.7837 3.73038 22.9612 3.54832 23.2088C3.36626 23.4565 3.27479 23.7591 3.28935 24.0661C3.26852 24.3755 3.35734 24.6825 3.5402 24.933C3.72306 25.1835 3.98827 25.3616 4.28935 25.4361C4.80596 25.6167 5.35288 25.6948 5.89939 25.6661Z" fill="white"/>
<path d="M19.4994 13.3361C19.4994 12.2461 19.4994 11.3361 19.4994 10.4161C19.4994 10.2061 19.4294 10.1561 19.2394 10.1261C18.9273 10.086 18.6114 10.086 18.2994 10.1261C18.1094 10.1261 18.0294 10.1261 18.0294 9.90613C18.0294 9.04613 18.0294 8.18611 18.0294 7.32611C18.0294 7.15611 18.0994 7.07611 18.2794 7.07611H19.2794C19.4694 7.07611 19.5394 7.0061 19.5294 6.8161C19.5675 6.14998 19.5675 5.48223 19.5294 4.8161C19.5294 4.5961 19.5294 4.5061 19.7994 4.5061H22.7994C23.0394 4.5061 23.1094 4.56611 23.0894 4.82611C23.0176 5.51697 22.9909 6.21179 23.0094 6.90613C23.0094 7.10613 23.1194 7.1261 23.2694 7.1261H25.8794C26.1494 7.1261 26.2294 7.21614 26.2294 7.47614C26.2294 8.27614 26.2294 9.06615 26.2294 9.86615C26.2294 10.2062 26.2294 10.2361 25.8594 10.2061C25.0194 10.1361 24.1694 10.2061 23.3194 10.1561C23.0894 10.1561 23.0094 10.2261 23.0194 10.4561C23.0194 12.2161 23.0194 13.9861 23.0194 15.7461C22.999 16.1999 23.06 16.6538 23.1994 17.0861C23.2878 17.3764 23.4813 17.6234 23.742 17.7787C24.0027 17.934 24.312 17.9866 24.6094 17.9261C25.107 17.881 25.5903 17.7346 26.0294 17.4961C26.1694 17.4161 26.2194 17.4962 26.2194 17.6161V20.3361C26.2194 20.5061 26.0894 20.5662 25.9594 20.6161C25.2488 20.9267 24.4847 21.0965 23.7094 21.1161C22.8927 21.1948 22.0705 21.0387 21.3394 20.6661C20.9758 20.4472 20.66 20.1573 20.4108 19.8137C20.1617 19.47 19.9844 19.0798 19.8894 18.6661C19.7038 17.9981 19.603 17.3094 19.5894 16.6161C19.4994 15.4562 19.4994 14.3361 19.4994 13.3361Z" fill="white"/>
<path d="M14.8294 20.9261C14.3594 20.9261 13.8894 20.9261 13.4194 20.9261C13.1494 20.9261 13.0694 20.8361 13.0794 20.5761C13.1994 16.4461 13.0794 12.3161 13.0794 8.1861C13.0794 7.9061 13.0794 7.62614 13.0794 7.35614C13.0794 7.08614 13.0794 7.0661 13.3394 7.0661H16.3394C16.6294 7.0661 16.6094 7.23615 16.5994 7.42615C16.5094 10.2061 16.5994 12.9861 16.5394 15.7761C16.5394 17.3661 16.5394 18.9461 16.5994 20.5361C16.5994 20.9161 16.5994 20.9161 16.2194 20.9161L14.8294 20.9261Z" fill="white"/>
<path d="M16.9894 2.33613C16.9964 2.66978 16.9322 3.00107 16.8011 3.30799C16.6701 3.61491 16.4752 3.89044 16.2294 4.11616C15.8551 4.48563 15.3503 4.69276 14.8244 4.69276C14.2985 4.69276 13.7937 4.48563 13.4194 4.11616C12.9571 3.65307 12.6975 3.02542 12.6975 2.3711C12.6975 1.71678 12.9571 1.08919 13.4194 0.626106C13.6706 0.360336 13.9899 0.168573 14.3425 0.0716016C14.6952 -0.0253694 15.0676 -0.0238239 15.4194 0.0761182C15.804 0.189415 16.151 0.404356 16.4238 0.69825C16.6965 0.992144 16.885 1.3541 16.9694 1.7461C17.0042 1.9408 17.0109 2.13952 16.9894 2.33613Z" fill="white"/>
</svg>
