<svg width="24" height="24" viewBox="0 0 24 24" fill="none" xmlns="http://www.w3.org/2000/svg">
<g clip-path="url(#clip0_3_192)">
<path d="M10.9586 0H13.0195C13.1966 0.0243744 13.3736 0.0499986 13.5507 0.073123C16.0659 0.398115 18.2795 1.40434 20.1202 3.13867C23.2085 6.05297 24.4624 9.651 23.8524 13.8496C23.4188 16.8346 21.9841 19.3045 19.6572 21.2163C16.786 23.5744 13.4675 24.4725 9.82611 23.7644C5.13922 22.8532 2.0503 20.0257 0.503648 15.5183C0.224599 14.7059 0.100091 13.8565 0.00311279 13.0053V10.9478C0.0581716 10.5728 0.102604 10.1935 0.170177 9.81912C0.57438 7.59536 1.59933 5.53092 3.12693 3.86367C4.65453 2.19643 6.62261 0.994239 8.8044 0.395615C9.51195 0.211928 10.2319 0.07971 10.9586 0ZM11.9922 1.70121C6.31236 1.71871 1.72245 6.28859 1.70681 11.9434C1.70203 13.292 1.96326 14.6282 2.47556 15.8759C2.98785 17.1236 3.74117 18.2582 4.69251 19.215C5.64385 20.1718 6.77457 20.932 8.02008 21.4522C9.2656 21.9725 10.6015 22.2425 11.9515 22.2469C17.6369 22.2694 22.275 17.6502 22.275 11.9972C22.2775 6.32296 17.6595 1.70121 11.9922 1.70121Z" fill="white"/>
<path d="M11.8601 5.92297C12.5996 5.9486 13.3392 6.0736 14.0049 6.48233C15.1605 7.19169 15.5409 8.45541 14.9778 9.68663C14.6356 10.4291 14.0737 10.9841 13.4455 11.4841C13.0701 11.7847 12.7241 12.1166 12.6397 12.6197C12.6013 12.8814 12.5791 13.1452 12.5734 13.4097C12.5584 13.7403 12.4238 13.9334 12.111 14.0309C11.8712 14.1042 11.6178 14.1218 11.3702 14.0821C11.0086 14.0265 10.8071 13.8321 10.7608 13.4728C10.605 12.2922 10.9203 11.2853 11.8757 10.5197C12.2105 10.2522 12.569 10.011 12.843 9.676C13.0933 9.36976 13.2447 9.03164 13.1559 8.6204C13.1286 8.47792 13.0671 8.3442 12.9765 8.23084C12.8859 8.11747 12.769 8.02787 12.6359 7.9698C11.989 7.66543 10.8841 7.67105 10.3748 8.52353C10.0719 9.03102 9.7272 9.11789 9.24857 8.90915C8.8106 8.72165 8.61665 8.29604 8.74241 7.78418C8.90634 7.11544 9.36057 6.68108 9.94244 6.36484C10.5243 6.0486 11.1725 5.9386 11.8601 5.92297Z" fill="white"/>
<path d="M11.6325 15.1352C12.3207 15.1352 12.8957 15.7015 12.8838 16.3771C12.8763 16.7043 12.7414 17.0156 12.5078 17.2451C12.2741 17.4745 11.9601 17.6039 11.6325 17.6058C11.3093 17.599 11.0016 17.4662 10.7752 17.2356C10.5489 17.0051 10.4219 16.6952 10.4214 16.3723C10.4209 16.0494 10.547 15.7392 10.7726 15.508C10.9983 15.2768 11.3055 15.143 11.6287 15.1352H11.6325Z" fill="white"/>
</g>
<defs>
<clipPath id="clip0_3_192">
<rect width="24" height="24" fill="white"/>
</clipPath>
</defs>
</svg>
