<svg width="24" height="17" viewBox="0 0 24 17" fill="none" xmlns="http://www.w3.org/2000/svg">
<g clip-path="url(#clip0_3_14)">
<path d="M11.64 0.00997857C14.73 0.00997857 17.83 0.00997857 20.92 0.00997857C21.5415 0.00997294 22.1378 0.256243 22.5782 0.694793C23.0186 1.13334 23.2674 1.72848 23.27 2.35001V13.81C23.2727 14.1181 23.214 14.4235 23.0973 14.7086C22.9807 14.9938 22.8084 15.2528 22.5906 15.4706C22.3728 15.6884 22.1137 15.8607 21.8286 15.9773C21.5435 16.094 21.2381 16.1527 20.93 16.15H2.34005C2.03202 16.1527 1.72654 16.094 1.44143 15.9773C1.15633 15.8607 0.897294 15.6884 0.679471 15.4706C0.461649 15.2528 0.289348 14.9938 0.172697 14.7086C0.056045 14.4235 -0.00263909 14.1181 2.80375e-05 13.81V2.32004C-0.00266169 2.01509 0.0555899 1.71264 0.171354 1.43051C0.287118 1.14838 0.458058 0.892204 0.674161 0.677032C0.890265 0.46186 1.14721 0.292003 1.42984 0.177459C1.71247 0.062915 2.0151 0.00597161 2.32004 0.00997857H11.64ZM11.64 15.2H20.88C21.1091 15.2047 21.3368 15.164 21.55 15.08C21.72 15.01 21.74 14.94 21.61 14.79C19.61 12.49 17.5867 10.1834 15.54 7.87003C15.35 7.65003 15.23 7.68003 15.05 7.87003L12.14 10.45C12.0882 10.5222 12.0199 10.5811 11.9408 10.6217C11.8616 10.6623 11.774 10.6836 11.685 10.6836C11.5961 10.6836 11.5084 10.6623 11.4293 10.6217C11.3502 10.5811 11.2819 10.5222 11.23 10.45C10.23 9.58998 9.28003 8.73001 8.31003 7.85001C8.12003 7.69001 8.02001 7.71001 7.86001 7.85001C6.66001 9.23001 5.45003 10.6 4.25003 11.97L1.79001 14.78C1.63001 14.95 1.68002 15.02 1.87002 15.08C2.07284 15.1488 2.28588 15.1826 2.50003 15.18L11.64 15.2ZM11.64 0.949981H2.11001C1.99001 0.949981 1.95001 1.01001 2.04001 1.10001L2.20004 1.25003L5.20004 3.92001L11.4101 9.41C11.5501 9.54 11.6401 9.53 11.7801 9.41C12.9201 8.39 14.0667 7.39 15.2201 6.41L20.9701 1.34C21.0601 1.25 21.2501 1.17002 21.2101 1.05002C21.17 0.930018 20.98 0.99002 20.85 0.99002L11.64 0.949981ZM0.94003 8.05002V13.83C0.94003 13.93 0.940038 14.08 1.01004 14.12C1.08004 14.16 1.17001 14.02 1.23001 13.95C3.23001 11.71 5.16003 9.46001 7.13003 7.23001C7.28003 7.06001 7.28003 6.97999 7.13003 6.82999L3.23001 3.38998L1.38003 1.75003C1.16003 1.57003 1.14001 1.58001 1.04001 1.85001C0.983374 2.03801 0.956427 2.23371 0.96005 2.43002L0.94003 8.05002ZM22.24 14.15C22.3189 14.0363 22.3511 13.8967 22.33 13.76V2.38998C22.332 2.22074 22.3084 2.05217 22.26 1.88998C22.16 1.57998 22.13 1.56 21.88 1.78L16.25 6.78C15.96 7.04 15.97 7.04004 16.25 7.32004C17.35 8.57004 18.45 9.82999 19.56 11.08L22.24 14.15Z" fill="white"/>
</g>
<defs>
<clipPath id="clip0_3_14">
<rect width="23.27" height="16.14" fill="white"/>
</clipPath>
</defs>
</svg>
