<svg width="39" height="50" viewBox="0 0 39 50" fill="none" xmlns="http://www.w3.org/2000/svg">
<path d="M35 14.3003V33H25.6469V15.8289C25.6469 10.5674 23.247 8.15009 19.0823 8.15009C14.9176 8.15009 11.3528 10.9229 11.3528 16.931V33H2V0.471012H10.9293V4.27496C12.3026 2.86127 13.9537 1.75173 15.7769 1.01716C17.6001 0.282596 19.5552 -0.0608817 21.5176 0.00883578C29.247 -0.0622656 35 4.5594 35 14.3003Z" fill="white"/>
<path d="M39 0V33H31.4951V6.36069H25V0.0569287L39 0Z" fill="#A61410"/>
<g clip-path="url(#clip0_106_22)">
<path d="M7.16858 40.0064H8.97808V46.3552H12.9028V47.8305H7.16858V40.0064Z" fill="white"/>
<path d="M13.9204 40.0064H15.7334V47.8305H13.9204V40.0064Z" fill="white"/>
<path d="M24.767 40.0064V47.8305H23.2805L19.3767 43.0958V47.8444H17.588V40.0064H19.0849L22.9783 44.7585V40.0064H24.767Z" fill="white"/>
<path d="M29.4732 44.7724L28.4312 45.8658V47.8444H26.6287V40.0064H28.4312V43.6616L31.9044 40.0064H33.9153L30.6749 43.4949L34.1064 47.8305H31.9912L29.4732 44.7724Z" fill="white"/>
<path d="M38.8263 42.3147C38.7806 42.3138 38.7369 42.2952 38.7045 42.2629C38.6722 42.2305 38.6536 42.1869 38.6527 42.1412V38.3471H0.347315V42.1412C0.347315 42.1872 0.329027 42.2313 0.29646 42.2639C0.263893 42.2964 0.219714 42.3147 0.173657 42.3147C0.127879 42.3138 0.0842277 42.2952 0.0518513 42.2629C0.019475 42.2305 0.000889152 42.1869 0 42.1412V38.1735C0 38.1275 0.0182879 38.0834 0.050855 38.0508C0.0834221 38.0183 0.127601 38 0.173657 38H38.8263C38.8724 38 38.9166 38.0183 38.9492 38.0508C38.9817 38.0834 39 38.1275 39 38.1735V42.1412C39 42.1872 38.9817 42.2313 38.9492 42.2639C38.9166 42.2964 38.8724 42.3147 38.8263 42.3147Z" fill="white"/>
<path d="M38.8263 50H0.173658C0.127601 50 0.0834221 49.9817 0.050855 49.9492C0.0182879 49.9166 0 49.8725 0 49.8264V45.8623C0 45.8163 0.0182879 45.7721 0.050855 45.7396C0.0834221 45.707 0.127601 45.6888 0.173658 45.6888C0.219714 45.6888 0.263893 45.707 0.29646 45.7396C0.329027 45.7721 0.347315 45.8163 0.347315 45.8623V49.6529H38.6527V45.8623C38.6527 45.8163 38.671 45.7721 38.7036 45.7396C38.7361 45.707 38.7803 45.6888 38.8263 45.6888C38.8724 45.6888 38.9166 45.707 38.9492 45.7396C38.9817 45.7721 39 45.8163 39 45.8623V49.8264C39 49.8725 38.9817 49.9166 38.9492 49.9492C38.9166 49.9817 38.8724 50 38.8263 50Z" fill="white"/>
<path d="M6.23084 46.6537H5.03955V47.8444H6.23084V46.6537Z" fill="white"/>
</g>
<defs>
<clipPath id="clip0_106_22">
<rect width="39" height="12" fill="white" transform="translate(0 38)"/>
</clipPath>
</defs>
</svg>
