<svg width="21" height="23" alt="hghghgh" viewBox="0 0 21 23" fill="none" xmlns="http://www.w3.org/2000/svg" alt="Descripción del icono">
<g clip-path="url(#clip0_106_54)">
<path d="M20.989 11.5346C20.989 13.0064 20.989 14.4783 20.989 15.9502C20.989 17.0557 20.5118 17.9508 19.5693 18.5333C18.5122 19.1839 17.3982 19.7483 16.2985 20.3319C15.9031 20.5445 15.5034 20.4127 15.3156 20.0704C15.1277 19.7281 15.2446 19.3518 15.6432 19.1286C16.578 18.6109 17.5129 18.0922 18.4641 17.6042C19.2504 17.2014 19.6163 16.5636 19.6206 15.7355C19.6337 12.9115 19.6337 10.0875 19.6206 7.26344C19.6206 6.46832 19.2646 5.8486 18.5143 5.44679C16.1751 4.19564 13.8478 2.9243 11.5151 1.66253C10.8325 1.29367 10.139 1.27666 9.45099 1.64977C7.15758 2.89135 4.86419 4.14781 2.55877 5.37025C1.73423 5.80927 1.37492 6.46832 1.37492 7.34742C1.37492 10.1048 1.37492 12.8626 1.37492 15.6207C1.37492 16.5529 1.77354 17.2226 2.63739 17.6776C4.81577 18.827 6.98213 19.9985 9.13648 21.1919C10.0309 21.6883 10.8664 21.7393 11.7444 21.1919C12.167 20.9272 12.6181 20.7093 13.0659 20.4796C13.5136 20.25 13.921 20.351 14.1263 20.7167C14.3185 21.0622 14.1907 21.4608 13.7648 21.684C12.985 22.089 12.2643 22.6163 11.407 22.8608C10.9754 22.9884 10.5214 23.0283 10.0733 22.9778C9.62517 22.9273 9.19253 22.7876 8.80229 22.5674C6.47248 21.3024 4.14084 20.0378 1.80739 18.7735C0.612631 18.123 -0.00112959 17.1482 0.00542301 15.7908C0.0221685 12.9143 0.0221685 10.0375 0.00542301 7.16034C0.00542301 5.85498 0.585336 4.88765 1.73423 4.25836C3.5908 3.23576 5.47466 2.23867 7.34651 1.23733C7.77571 1.00666 8.21255 0.788747 8.6341 0.544259C9.89657 -0.186018 11.1394 -0.176452 12.4204 0.533628C14.6206 1.75536 16.8329 2.95584 19.0571 4.13505C20.3818 4.83875 21.0447 5.86773 21.001 7.35699C20.9574 8.74951 20.989 10.142 20.989 11.5346Z" fill="white" fill-opacity="0.75"/>
<path d="M6.545 12.0097C6.545 10.9467 6.545 10.006 6.545 9.06523C6.545 8.55924 6.7765 8.29562 7.20788 8.28605C7.6611 8.27755 7.90684 8.54542 7.90793 9.06842C7.90793 10.6863 7.90793 12.3042 7.90793 13.921C7.90793 14.259 7.81946 14.5365 7.48091 14.6598C7.11505 14.7937 6.8191 14.6598 6.58976 14.3621C5.83039 13.375 5.0703 12.3885 4.30947 11.4028C4.2221 11.2911 4.12818 11.1838 3.98184 11.0031C3.98184 12.0565 3.98184 13.0228 3.98184 13.9795C3.98184 14.4525 3.70116 14.7236 3.25886 14.6991C2.90283 14.6821 2.62981 14.4504 2.62762 14.0964C2.6167 12.3595 2.61998 10.6225 2.62762 8.88771C2.62553 8.75935 2.66731 8.63396 2.74638 8.53122C2.82544 8.42848 2.93733 8.3542 3.06446 8.32007C3.19888 8.26605 3.34783 8.25656 3.48834 8.29306C3.62885 8.32955 3.75315 8.41001 3.84205 8.52204C4.15439 8.90684 4.4558 9.30015 4.7594 9.69133C5.33057 10.4322 5.90066 11.1742 6.545 12.0097Z" fill="white" fill-opacity="0.75"/>
<path d="M9.16168 11.4676C9.16168 10.6597 9.16168 9.85184 9.16168 9.04396C9.16168 8.51247 9.39102 8.28924 9.92615 8.28605C10.743 8.28038 11.5596 8.28038 12.3757 8.28605C12.8759 8.28605 13.1467 8.53798 13.1402 8.9653C13.1315 9.37243 12.8639 9.6031 12.3823 9.61054C11.9007 9.61798 11.3994 9.62223 10.9123 9.61054C10.6415 9.6031 10.517 9.67964 10.5224 9.96877C10.5443 10.9967 10.4132 10.8192 11.3677 10.8319C11.7216 10.8319 12.0765 10.8266 12.4292 10.8319C12.8726 10.8426 13.1347 11.0881 13.1402 11.4814C13.1457 11.8949 12.8803 12.1479 12.4118 12.1553C11.8952 12.1628 11.3776 12.1649 10.861 12.1553C10.6153 12.1553 10.5192 12.2425 10.5246 12.4827C10.5355 12.9462 10.5246 13.4097 10.5246 13.8731C10.5246 14.4316 10.2934 14.7076 9.83112 14.7012C9.38773 14.7012 9.16277 14.4259 9.16058 13.8912C9.15949 13.0833 9.16168 12.2755 9.16168 11.4676Z" fill="white" fill-opacity="0.75"/>
<path d="M15.7012 12.0118V10.1441C15.7012 9.62328 15.7012 9.62328 15.1715 9.61265C14.6637 9.60202 14.3928 9.36816 14.395 8.94296C14.395 8.57517 14.6364 8.29773 15.0175 8.29241C15.9291 8.27753 16.8391 8.27753 17.7478 8.29241C18.1267 8.29879 18.3659 8.57942 18.3659 8.94828C18.37 9.03122 18.3573 9.11414 18.3284 9.19228C18.2996 9.27042 18.2552 9.34226 18.1978 9.40367C18.1403 9.46509 18.071 9.51488 17.9938 9.55019C17.9166 9.5855 17.833 9.60564 17.7478 9.60946C17.0608 9.67537 17.0608 9.67537 17.0608 10.3472C17.0608 11.5399 17.0608 12.7325 17.0608 13.9252C17.0608 14.428 16.8271 14.6938 16.398 14.7023C15.9458 14.7108 15.7012 14.4418 15.699 13.9199C15.699 13.2842 15.7012 12.6475 15.7012 12.0118Z" fill="white" fill-opacity="0.75"/>
</g>
<defs>
<clipPath id="clip0_106_54">
<rect width="21" height="23" fill="white"/>
</clipPath>
</defs>
</svg>
