<svg width="33" height="27" viewBox="0 0 33 27" fill="none" xmlns="http://www.w3.org/2000/svg">
<g clip-path="url(#clip0_106_90)">
<path d="M20.3201 5.7496V1.45792C17.4038 0.726354 14.3146 0.86807 11.4893 1.86296C10.0154 2.39745 8.69186 3.2386 7.61942 4.3223V1.37989H0.130859V26.5927H7.98048V14.1254C7.98048 11.8759 8.56664 10.181 9.73885 9.04082C10.9111 7.90063 12.4861 7.33134 14.4642 7.33297C16.24 7.33297 17.5971 7.82506 18.5356 8.80912C19.474 9.79317 19.9433 11.2847 19.9433 13.2837V26.5952H25.8201V5.75937L20.3201 5.7496Z" stroke="#8C8E9F" stroke-miterlimit="10"/>
<path d="M32.1599 0.996857V26.5854H25.8096V5.74958H20.3201V0.996857H32.1599Z" stroke="#8C8E9F" stroke-miterlimit="10"/>
</g>
<defs>
<clipPath id="clip0_106_90">
<rect width="32.2907" height="25.8326" fill="white" transform="translate(0 0.874878)"/>
</clipPath>
</defs>
</svg>
