<svg width="21" height="21" viewBox="0 0 21 21" fill="none" xmlns="http://www.w3.org/2000/svg">
<g clip-path="url(#clip0_106_104)">
<path d="M18.8198 10.4521C18.7968 7.99631 17.908 5.91691 16.11 4.23489C16.0143 4.14505 15.9173 4.05718 15.8255 3.96406C15.4066 3.53978 15.3857 2.90698 15.7744 2.48139C16.1886 2.02826 16.8127 1.98629 17.2892 2.39483C18.7251 3.6153 19.8045 5.20133 20.4133 6.98514C20.8223 8.16157 21.0478 9.37865 20.9908 10.62C20.8007 14.7736 18.8853 17.8806 15.2257 19.8701C13.9626 20.5574 12.5874 20.9102 11.1459 20.9849C7.83897 21.1567 5.05313 20.0105 2.79889 17.6104C1.2362 15.9461 0.330967 13.9493 0.0746695 11.6745C-0.263564 8.67699 0.551213 6.01396 2.43903 3.67421C2.80359 3.22153 3.21126 2.80536 3.65628 2.43155C4.12692 2.0381 4.75816 2.06695 5.15801 2.50303C5.25726 2.60483 5.33478 2.72576 5.38587 2.85845C5.43697 2.99115 5.46056 3.13286 5.45523 3.27496C5.4499 3.41706 5.41575 3.5566 5.35485 3.68509C5.29395 3.81358 5.20758 3.92835 5.10098 4.02242C4.45401 4.62965 3.85555 5.26836 3.39343 6.0356C2.7409 7.0974 2.33625 8.29279 2.20961 9.53275C1.9815 11.8384 2.56095 13.9152 4.00828 15.7238C5.35794 17.4097 7.11531 18.4366 9.2568 18.7402C12.0997 19.1429 14.5447 18.2956 16.538 16.2346C17.8405 14.8877 18.5746 13.2509 18.7752 11.382C18.7922 11.2279 18.8106 11.0738 18.8185 10.919C18.8263 10.7643 18.8198 10.6075 18.8198 10.4521Z" fill="#C7C8CA"/>
<path d="M11.5832 5.33066C11.5832 6.68808 11.5832 8.0455 11.5832 9.40226C11.5832 9.99244 11.2738 10.4292 10.7835 10.5616C10.0959 10.7466 9.46271 10.2685 9.40699 9.52227C9.40175 9.44095 9.40699 9.35898 9.40699 9.27701C9.40699 6.62775 9.40699 3.97849 9.40699 1.32922C9.40347 1.22308 9.40719 1.11681 9.41814 1.01118C9.50139 0.407224 9.97531 -0.0236079 10.522 0.000655151C11.127 0.028197 11.578 0.508212 11.5826 1.16069C11.5911 2.39548 11.5826 3.62962 11.5826 4.86441L11.5832 5.33066Z" fill="#C7C8CA"/>
</g>
<defs>
<clipPath id="clip0_106_104">
<rect width="21" height="21" fill="white"/>
</clipPath>
</defs>
</svg>
