<svg width="25" height="21" viewBox="0 0 25 21" fill="none" xmlns="http://www.w3.org/2000/svg">
<path d="M0.0300293 9.17012C0.320039 8.78293 0.72661 8.49902 1.19 8.36013L22.57 0.170123C22.8208 0.0548041 23.0941 -0.00324915 23.3701 0.000140322C23.6424 0.0203688 23.8969 0.143013 24.0825 0.343402C24.268 0.543791 24.3708 0.80706 24.3701 1.08016C24.3781 1.5873 24.3106 2.09282 24.17 2.58016C23.1033 7.60682 22.03 12.6401 20.95 17.6801L20.62 19.1801C20.5756 19.3754 20.505 19.5638 20.41 19.7401C20.3083 19.9833 20.1145 20.1765 19.8711 20.2776C19.6276 20.3787 19.3541 20.3797 19.11 20.2802C18.8361 20.1949 18.579 20.063 18.35 19.8902L13.22 16.1301C13.04 15.9901 12.94 16.0101 12.79 16.1301C11.93 16.9701 11.07 17.7901 10.2 18.6201C9.98619 18.8435 9.70531 18.991 9.40002 19.0401C9.21002 19.0401 9.13002 19.0401 9.15002 18.7901C9.22002 17.9501 9.27002 17.1002 9.33002 16.2602C9.39002 15.4202 9.46002 14.4501 9.52002 13.5401C9.5283 13.4689 9.5512 13.4001 9.58734 13.3382C9.62348 13.2762 9.6721 13.2224 9.73004 13.1801L13.19 10.0701L18.07 5.70015L19.82 4.12014C19.93 4.02014 20.13 3.93014 20.03 3.75014C19.93 3.57014 19.73 3.66014 19.58 3.75014C19.4459 3.79724 19.3182 3.86108 19.2 3.94014L6.72003 11.7501C6.63135 11.8137 6.5283 11.8542 6.4201 11.8682C6.31191 11.8821 6.20194 11.8691 6.10004 11.8302C4.40004 11.2902 2.7 10.7701 1 10.2401C0.596938 10.1694 0.237801 9.94316 0 9.61013L0.0300293 9.17012Z" fill="white"/>
</svg>
