<svg width="23" height="19" viewBox="0 0 23 19" fill="none" xmlns="http://www.w3.org/2000/svg">
<g clip-path="url(#clip0_3_16)">
<path d="M0 16.4C2.38178 16.6661 4.7745 16.0035 6.68005 14.55C6.31417 14.5042 5.95284 14.4273 5.60004 14.32C4.93313 14.1225 4.3182 13.7798 3.7995 13.3164C3.2808 12.853 2.87118 12.2805 2.60004 11.64L2.54004 11.49C2.46004 11.29 2.54004 11.2201 2.73004 11.2501C3.14119 11.3101 3.55888 11.3101 3.97003 11.2501C4.10789 11.2459 4.24363 11.2153 4.37 11.16C3.59787 10.9552 2.88954 10.5598 2.31 10.01C1.43719 9.16461 0.912763 8.02298 0.840027 6.81005C0.840027 6.55005 0.840046 6.51005 1.11005 6.62005C1.6481 6.8805 2.23299 7.03013 2.83002 7.06005C2.58876 6.83781 2.36165 6.60065 2.15002 6.35003C1.50988 5.66082 1.0959 4.79231 0.963623 3.86102C0.831348 2.92973 0.987118 1.98021 1.41003 1.14001C1.57003 0.810008 1.59001 0.810011 1.82001 1.08001C3.86257 3.48156 6.70326 5.06527 9.82001 5.54003C10.14 5.60003 10.47 5.62003 10.82 5.66003C11.17 5.70003 11.19 5.66 11.14 5.32C11.0014 4.35577 11.1665 3.37235 11.6123 2.50622C12.0581 1.64009 12.7626 0.934233 13.6279 0.486749C14.4931 0.0392656 15.4763 -0.127629 16.4408 0.0091491C17.4053 0.145927 18.3033 0.579636 19.01 1.25005C19.0751 1.31927 19.1593 1.36761 19.2518 1.38897C19.3444 1.41033 19.4412 1.40375 19.53 1.37005C20.356 1.16546 21.1524 0.856254 21.9 0.450006C21.97 0.450006 22.05 0.330006 22.12 0.450006C22.19 0.570006 22.12 0.600048 22.12 0.680048C21.8264 1.47361 21.3131 2.16727 20.64 2.68005C20.5662 2.73541 20.4991 2.79918 20.44 2.87005C21.2365 2.77322 22.0146 2.56099 22.75 2.24005C22.75 2.39005 22.7 2.47004 22.64 2.55004C22.1297 3.29038 21.5053 3.94518 20.79 4.49005C20.6915 4.55823 20.6133 4.65194 20.564 4.76116C20.5146 4.87039 20.496 4.99101 20.51 5.11004C20.5321 6.36748 20.3669 7.62117 20.02 8.83001C19.3904 11.1617 18.1473 13.2819 16.42 14.97C14.5334 16.8283 12.1014 18.0338 9.48004 18.41C6.95839 18.826 4.3704 18.5137 2.02002 17.51C1.45026 17.2668 0.898804 16.9827 0.369995 16.66C0.291153 16.6522 0.215702 16.6242 0.150879 16.5786C0.0860554 16.5331 0.0340614 16.4715 0 16.4Z" fill="white"/>
</g>
<defs>
<clipPath id="clip0_3_16">
<rect width="22.65" height="18.56" fill="white"/>
</clipPath>
</defs>
</svg>
