<svg width="19" height="23" viewBox="0 0 19 23" fill="none" xmlns="http://www.w3.org/2000/svg">
<g clip-path="url(#clip0_106_51)">
<path d="M3.39227 23C2.72892 22.896 2.09945 22.7009 1.54444 22.3007C0.677188 21.6749 0.155504 20.8249 0.0566121 19.7585C-0.118393 17.8274 0.101061 15.9356 0.823304 14.1305C1.28943 12.9639 2.00945 11.9942 3.19671 11.4674C3.72029 11.2401 4.28077 11.1125 4.85009 11.0907C5.12445 11.0777 5.3961 11.1508 5.62789 11.2999C5.94234 11.4961 6.25791 11.69 6.56458 11.8986C7.30735 12.4092 8.16253 12.7277 9.05521 12.8262C9.75412 12.9049 10.4352 12.7869 11.103 12.5592C11.7359 12.3454 12.3273 12.022 12.8509 11.6035C13.6287 10.9822 14.4498 11.0177 15.3226 11.2892C16.4893 11.6512 17.2916 12.431 17.8627 13.4901C18.4705 14.6179 18.7305 15.8457 18.8927 17.1061C18.9716 17.7161 18.9866 18.3283 18.9972 18.9388C19.0366 21.2691 17.6177 22.7257 15.6521 22.9758C15.6304 22.981 15.6093 22.9885 15.5893 22.9983L3.39227 23ZM9.89801 21.6378C11.4725 21.6024 13.432 21.698 15.3893 21.594C15.8806 21.5705 16.3524 21.3922 16.7388 21.0841C17.436 20.5354 17.6416 19.7697 17.6082 18.9309C17.5827 18.2979 17.5877 17.6615 17.4882 17.0313C17.3349 16.061 17.1449 15.1042 16.6793 14.2272C16.2449 13.4097 15.651 12.793 14.7193 12.5755C14.3337 12.4855 13.9831 12.4793 13.657 12.7571C13.4715 12.9145 13.2526 13.0325 13.0459 13.1618C11.0953 14.379 9.06299 14.6049 6.92903 13.6936C6.30346 13.4261 5.75789 13.0286 5.18732 12.6694C5.06287 12.5912 4.9462 12.5007 4.78342 12.5086C4.09395 12.5485 3.48393 12.7812 2.99114 13.281C2.56694 13.7225 2.24144 14.2511 2.03667 14.8309C1.48777 16.31 1.34498 17.8493 1.40943 19.4144C1.44832 20.3735 2.05 21.1572 2.94614 21.4596C3.3906 21.6097 3.84562 21.6334 4.30285 21.635C6.03957 21.6418 7.77684 21.6378 9.89801 21.6378Z" fill="white"/>
<path d="M9.37137 0.00225974C12.2659 -0.0781323 14.8804 2.46799 14.8543 5.56787C14.8467 7.04229 14.263 8.45382 13.2307 9.49441C12.1984 10.535 10.8013 11.1202 9.34414 11.1222C6.29517 11.1352 3.83842 8.50527 3.84731 5.52964C3.8562 2.55401 6.3935 -0.09556 9.37137 0.00225974ZM13.452 5.54931C13.5337 3.46924 11.7764 1.39816 9.36581 1.38916C7.05074 1.37961 5.23124 3.31689 5.23736 5.56899C5.24347 7.95039 7.26575 9.71902 9.34858 9.72296C11.542 9.7252 13.5365 7.79298 13.452 5.54931Z" fill="white"/>
</g>
<defs>
<clipPath id="clip0_106_51">
<rect width="19" height="23" fill="white"/>
</clipPath>
</defs>
</svg>
