<svg width="1422" height="897" viewBox="0 0 1422 897" fill="none" xmlns="http://www.w3.org/2000/svg">
<path d="M972.305 836.196H964.988V828.881C965.009 828.62 964.976 828.358 964.89 828.112C964.805 827.865 964.669 827.638 964.492 827.446C964.315 827.254 964.1 827.101 963.861 826.996C963.621 826.892 963.363 826.838 963.102 826.838C962.84 826.838 962.582 826.892 962.343 826.996C962.103 827.101 961.888 827.254 961.711 827.446C961.534 827.638 961.398 827.865 961.313 828.112C961.228 828.358 961.194 828.62 961.215 828.881V836.196H953.898C953.399 836.196 952.921 836.394 952.568 836.747C952.216 837.1 952.017 837.578 952.017 838.077C952.017 838.575 952.216 839.053 952.568 839.406C952.921 839.759 953.399 839.957 953.898 839.957H961.215V847.272C961.194 847.533 961.228 847.795 961.313 848.042C961.398 848.288 961.534 848.515 961.711 848.707C961.888 848.899 962.103 849.052 962.343 849.157C962.582 849.261 962.84 849.316 963.102 849.316C963.363 849.316 963.621 849.261 963.861 849.157C964.1 849.052 964.315 848.899 964.492 848.707C964.669 848.515 964.805 848.288 964.89 848.042C964.976 847.795 965.009 847.533 964.988 847.272V839.945H972.305C972.804 839.945 973.282 839.747 973.635 839.394C973.988 839.041 974.186 838.563 974.186 838.065C974.186 837.566 973.988 837.088 973.635 836.735C973.282 836.382 972.804 836.184 972.305 836.184V836.196Z" fill="white"/>
<path d="M525.854 884.032H518.537V876.716C518.499 876.242 518.284 875.799 517.934 875.477C517.585 875.154 517.126 874.975 516.651 874.975C516.175 874.975 515.716 875.154 515.367 875.477C515.017 875.799 514.802 876.242 514.764 876.716V884.032H507.447C506.973 884.07 506.53 884.285 506.207 884.634C505.884 884.984 505.705 885.442 505.705 885.918C505.705 886.394 505.884 886.852 506.207 887.201C506.53 887.551 506.973 887.766 507.447 887.804H514.764V895.12C514.802 895.594 515.017 896.036 515.367 896.359C515.716 896.682 516.175 896.861 516.651 896.861C517.126 896.861 517.585 896.682 517.934 896.359C518.284 896.036 518.499 895.594 518.537 895.12V887.804H525.854C526.328 887.766 526.771 887.551 527.094 887.201C527.417 886.852 527.596 886.394 527.596 885.918C527.596 885.442 527.417 884.984 527.094 884.634C526.771 884.285 526.328 884.07 525.854 884.032Z" fill="white"/>
<path d="M382.2 234.392H374.883V227.076C374.904 226.816 374.871 226.554 374.786 226.307C374.7 226.06 374.565 225.834 374.387 225.642C374.21 225.45 373.995 225.297 373.756 225.192C373.517 225.087 373.258 225.033 372.997 225.033C372.736 225.033 372.477 225.087 372.238 225.192C371.999 225.297 371.783 225.45 371.606 225.642C371.429 225.834 371.294 226.06 371.208 226.307C371.123 226.554 371.089 226.816 371.11 227.076V234.392H363.793C363.319 234.43 362.876 234.645 362.554 234.995C362.231 235.344 362.052 235.802 362.052 236.278C362.052 236.754 362.231 237.212 362.554 237.562C362.876 237.911 363.319 238.126 363.793 238.164H371.11V245.48C371.148 245.954 371.363 246.397 371.713 246.719C372.063 247.042 372.521 247.221 372.997 247.221C373.473 247.221 373.931 247.042 374.281 246.719C374.63 246.397 374.845 245.954 374.883 245.48V238.164H382.2C382.675 238.126 383.117 237.911 383.44 237.562C383.763 237.212 383.942 236.754 383.942 236.278C383.942 235.802 383.763 235.344 383.44 234.995C383.117 234.645 382.675 234.43 382.2 234.392Z" fill="white"/>
<path d="M1162.5 62.9971H1155.18V55.6814C1155.18 55.1827 1154.99 54.7045 1154.63 54.3519C1154.28 53.9993 1153.8 53.8012 1153.3 53.8012C1152.8 53.8012 1152.33 53.9993 1151.97 54.3519C1151.62 54.7045 1151.42 55.1827 1151.42 55.6814V62.9971H1144.11C1143.85 62.9762 1143.58 63.0095 1143.34 63.0949C1143.09 63.1802 1142.86 63.3157 1142.67 63.4929C1142.48 63.6701 1142.33 63.8851 1142.22 64.1244C1142.12 64.3637 1142.06 64.622 1142.06 64.8832C1142.06 65.1445 1142.12 65.4028 1142.22 65.6421C1142.33 65.8814 1142.48 66.0964 1142.67 66.2736C1142.86 66.4507 1143.09 66.5863 1143.34 66.6716C1143.58 66.7569 1143.85 66.7903 1144.11 66.7694H1151.42V74.0851C1151.42 74.5838 1151.62 75.062 1151.97 75.4146C1152.33 75.7672 1152.8 75.9653 1153.3 75.9653C1153.8 75.9653 1154.28 75.7672 1154.63 75.4146C1154.99 75.062 1155.18 74.5838 1155.18 74.0851V66.7694H1162.5C1162.76 66.7903 1163.02 66.7569 1163.27 66.6716C1163.52 66.5863 1163.74 66.4507 1163.94 66.2736C1164.13 66.0964 1164.28 65.8814 1164.39 65.6421C1164.49 65.4028 1164.54 65.1445 1164.54 64.8832C1164.54 64.622 1164.49 64.3637 1164.39 64.1244C1164.28 63.8851 1164.13 63.6701 1163.94 63.4929C1163.74 63.3157 1163.52 63.1802 1163.27 63.0949C1163.02 63.0095 1162.76 62.9762 1162.5 62.9971Z" fill="white"/>
<path d="M20.2878 776.478H12.9707V769.162C12.9327 768.688 12.7175 768.245 12.3679 767.922C12.0183 767.6 11.5599 767.421 11.0841 767.421C10.6083 767.421 10.15 767.6 9.80035 767.922C9.45075 768.245 9.23554 768.688 9.1976 769.162V776.478H1.91667C1.44237 776.516 0.999769 776.731 0.677013 777.08C0.354257 777.43 0.17503 777.888 0.17503 778.364C0.17503 778.839 0.354257 779.298 0.677013 779.647C0.999769 779.997 1.44237 780.212 1.91667 780.25H9.14938V787.566C9.18732 788.04 9.40253 788.482 9.75213 788.805C10.1017 789.128 10.5601 789.307 11.0359 789.307C11.5117 789.307 11.9701 789.128 12.3197 788.805C12.6693 788.482 12.8845 788.04 12.9224 787.566V780.25H20.2395C20.7138 780.212 21.1564 779.997 21.4792 779.647C21.8019 779.298 21.9812 778.839 21.9812 778.364C21.9812 777.888 21.8019 777.43 21.4792 777.08C21.1564 776.731 20.7138 776.516 20.2395 776.478H20.2878Z" fill="white"/>
<path d="M1141.79 456.093H1134.47V448.777C1134.5 448.517 1134.46 448.255 1134.38 448.008C1134.29 447.761 1134.16 447.535 1133.98 447.343C1133.8 447.151 1133.59 446.998 1133.35 446.893C1133.11 446.788 1132.85 446.734 1132.59 446.734C1132.33 446.734 1132.07 446.788 1131.83 446.893C1131.59 446.998 1131.37 447.151 1131.2 447.343C1131.02 447.535 1130.88 447.761 1130.8 448.008C1130.71 448.255 1130.68 448.517 1130.7 448.777V456.093H1123.38C1122.89 456.093 1122.41 456.291 1122.05 456.644C1121.7 456.996 1121.5 457.474 1121.5 457.973C1121.5 458.472 1121.7 458.95 1122.05 459.303C1122.41 459.655 1122.89 459.853 1123.38 459.853H1130.7V467.181C1130.68 467.441 1130.71 467.703 1130.8 467.95C1130.88 468.197 1131.02 468.423 1131.2 468.615C1131.37 468.807 1131.59 468.96 1131.83 469.065C1132.07 469.17 1132.33 469.224 1132.59 469.224C1132.85 469.224 1133.11 469.17 1133.35 469.065C1133.59 468.96 1133.8 468.807 1133.98 468.615C1134.16 468.423 1134.29 468.197 1134.38 467.95C1134.46 467.703 1134.5 467.441 1134.47 467.181V459.865H1141.79C1142.29 459.865 1142.77 459.667 1143.12 459.315C1143.47 458.962 1143.67 458.484 1143.67 457.985C1143.67 457.486 1143.47 457.008 1143.12 456.656C1142.77 456.303 1142.29 456.105 1141.79 456.105V456.093Z" fill="white"/>
<path d="M284.571 545.581H277.254V538.277C277.254 537.779 277.056 537.3 276.703 536.948C276.35 536.595 275.872 536.397 275.373 536.397C274.875 536.397 274.396 536.595 274.044 536.948C273.691 537.3 273.493 537.779 273.493 538.277V545.581H266.176C265.915 545.56 265.653 545.593 265.407 545.679C265.16 545.764 264.933 545.899 264.741 546.077C264.549 546.254 264.396 546.469 264.291 546.708C264.186 546.947 264.132 547.206 264.132 547.467C264.132 547.728 264.186 547.987 264.291 548.226C264.396 548.465 264.549 548.68 264.741 548.857C264.933 549.034 265.16 549.17 265.407 549.255C265.653 549.341 265.915 549.374 266.176 549.353H273.493V556.717C273.493 557.216 273.691 557.694 274.044 558.047C274.396 558.399 274.875 558.597 275.373 558.597C275.872 558.597 276.35 558.399 276.703 558.047C277.056 557.694 277.254 557.216 277.254 556.717V549.401H284.571C284.831 549.422 285.093 549.389 285.34 549.304C285.587 549.218 285.814 549.083 286.006 548.906C286.198 548.728 286.351 548.513 286.456 548.274C286.56 548.035 286.614 547.776 286.614 547.515C286.614 547.254 286.56 546.996 286.456 546.756C286.351 546.517 286.198 546.302 286.006 546.125C285.814 545.948 285.587 545.812 285.34 545.727C285.093 545.642 284.831 545.608 284.571 545.629V545.581Z" fill="white"/>
<path d="M650.04 854.516L645.218 848.984L650.739 844.163C650.927 844.001 651.082 843.804 651.194 843.582C651.306 843.361 651.373 843.119 651.39 842.871C651.408 842.624 651.377 842.375 651.298 842.14C651.22 841.904 651.095 841.686 650.932 841.499C650.602 841.124 650.138 840.894 649.639 840.858C649.141 840.822 648.648 840.983 648.268 841.307L642.747 846.127L637.925 840.595C637.597 840.218 637.133 839.987 636.635 839.952C636.136 839.917 635.644 840.081 635.267 840.409C634.89 840.736 634.658 841.2 634.623 841.699C634.588 842.197 634.752 842.689 635.08 843.066L639.902 848.598L634.369 853.419C634.144 853.564 633.953 853.755 633.807 853.98C633.662 854.205 633.567 854.458 633.528 854.723C633.488 854.988 633.506 855.258 633.579 855.515C633.653 855.772 633.78 856.011 633.953 856.215C634.126 856.419 634.341 856.584 634.582 856.698C634.824 856.813 635.088 856.875 635.355 856.879C635.623 856.884 635.888 856.831 636.134 856.725C636.38 856.619 636.6 856.461 636.78 856.263L642.313 851.442L647.135 856.974C647.472 857.281 647.91 857.455 648.367 857.462C648.823 857.47 649.267 857.312 649.615 857.017C649.963 856.722 650.192 856.31 650.259 855.859C650.326 855.408 650.227 854.948 649.979 854.564L650.04 854.516Z" fill="white"/>
<path d="M321.458 548.654L316.636 543.122L322.157 538.301C322.363 538.145 322.535 537.948 322.662 537.722C322.789 537.497 322.868 537.248 322.895 536.991C322.922 536.734 322.896 536.474 322.818 536.227C322.741 535.98 322.613 535.752 322.444 535.556C322.275 535.36 322.067 535.202 321.834 535.089C321.601 534.977 321.348 534.914 321.089 534.903C320.831 534.893 320.573 534.936 320.331 535.029C320.09 535.122 319.87 535.263 319.686 535.445L314.165 540.266L309.343 534.734C309.181 534.547 308.983 534.394 308.762 534.284C308.54 534.173 308.299 534.107 308.053 534.09C307.806 534.073 307.558 534.104 307.323 534.182C307.089 534.261 306.872 534.385 306.685 534.547C306.498 534.709 306.345 534.907 306.235 535.128C306.124 535.349 306.058 535.59 306.041 535.837C306.024 536.084 306.055 536.332 306.134 536.566C306.212 536.801 306.336 537.018 306.498 537.204L311.32 542.736L305.799 547.557C305.612 547.72 305.459 547.917 305.349 548.138C305.238 548.36 305.172 548.601 305.155 548.847C305.138 549.094 305.169 549.342 305.248 549.577C305.326 549.811 305.45 550.028 305.612 550.215C305.774 550.402 305.972 550.555 306.193 550.665C306.415 550.776 306.656 550.841 306.902 550.859C307.149 550.876 307.397 550.845 307.632 550.766C307.866 550.688 308.083 550.564 308.27 550.402L313.791 545.581L318.613 551.113C318.941 551.49 319.405 551.721 319.903 551.757C320.402 551.792 320.894 551.627 321.271 551.3C321.648 550.972 321.88 550.508 321.915 550.009C321.95 549.511 321.785 549.019 321.458 548.642V548.654Z" fill="white"/>
<path d="M718.268 14.5471L713.447 9.02713L718.968 4.20623C719.156 4.04569 719.31 3.84939 719.422 3.62873C719.533 3.40807 719.6 3.16743 719.618 2.92078C719.636 2.67412 719.605 2.42636 719.526 2.19187C719.448 1.95737 719.323 1.74081 719.16 1.55474C719 1.36663 718.803 1.21226 718.583 1.1006C718.362 0.988945 718.121 0.92221 717.875 0.904272C717.628 0.886333 717.38 0.917549 717.146 0.996106C716.911 1.07466 716.694 1.199 716.508 1.3619L710.975 6.1828L706.154 0.66287C705.827 0.285761 705.365 0.0536003 704.867 0.0174383C704.37 -0.0187236 703.879 0.144074 703.502 0.470034C703.313 0.631642 703.158 0.828984 703.047 1.05067C702.935 1.27235 702.868 1.51399 702.85 1.76162C702.832 2.00926 702.863 2.258 702.942 2.49348C703.021 2.72895 703.145 2.94651 703.309 3.13358L708.13 8.65351L702.597 13.4744C702.222 13.8043 701.992 14.2685 701.956 14.7667C701.92 15.265 702.081 15.7574 702.405 16.1379C702.734 16.5141 703.2 16.7443 703.699 16.7781C704.198 16.812 704.691 16.6468 705.069 16.3187L710.602 11.4978L715.424 17.0178C715.585 17.2063 715.783 17.3609 716.004 17.4727C716.226 17.5845 716.468 17.6513 716.715 17.6692C716.963 17.6872 717.212 17.6559 717.447 17.5771C717.683 17.4984 717.9 17.3738 718.088 17.2106C718.464 16.8807 718.694 16.4153 718.728 15.9161C718.762 15.417 718.597 14.9247 718.268 14.5471Z" fill="white"/>
<path d="M1358.98 491.707L1354.16 486.187L1359.69 481.366C1360.07 481.039 1360.3 480.575 1360.33 480.076C1360.37 479.578 1360.2 479.086 1359.88 478.709C1359.55 478.332 1359.08 478.1 1358.59 478.065C1358.09 478.03 1357.6 478.195 1357.22 478.522L1351.68 483.343L1346.86 477.811C1346.71 477.605 1346.51 477.433 1346.28 477.306C1346.06 477.179 1345.81 477.1 1345.55 477.073C1345.29 477.046 1345.03 477.072 1344.79 477.15C1344.54 477.227 1344.31 477.355 1344.12 477.524C1343.92 477.693 1343.76 477.901 1343.65 478.134C1343.54 478.367 1343.47 478.62 1343.46 478.879C1343.45 479.137 1343.5 479.395 1343.59 479.636C1343.68 479.878 1343.82 480.097 1344.01 480.282L1348.83 485.802L1343.29 490.623C1342.99 490.96 1342.81 491.398 1342.81 491.854C1342.8 492.311 1342.96 492.754 1343.25 493.102C1343.55 493.45 1343.96 493.679 1344.41 493.746C1344.86 493.813 1345.32 493.714 1345.71 493.467L1351.24 488.646L1356.06 494.166C1356.22 494.354 1356.42 494.508 1356.64 494.62C1356.86 494.732 1357.1 494.798 1357.35 494.816C1357.59 494.834 1357.84 494.803 1358.08 494.725C1358.31 494.646 1358.53 494.522 1358.71 494.359C1359.1 494.041 1359.34 493.584 1359.39 493.088C1359.44 492.591 1359.29 492.095 1358.98 491.707Z" fill="white"/>
<path d="M71.5436 96.3215L66.7218 90.8016L72.2427 85.9807C72.5495 85.6429 72.723 85.2051 72.7308 84.7489C72.7386 84.2927 72.5803 83.8492 72.2852 83.5011C71.9902 83.153 71.5786 82.9241 71.1272 82.857C70.6758 82.7899 70.2154 82.8892 69.8318 83.1363L64.2988 87.9572L59.477 82.4253C59.1493 82.0481 58.6851 81.8165 58.1867 81.7815C57.6882 81.7464 57.1962 81.9108 56.819 82.2385C56.4417 82.5661 56.2101 83.0301 56.175 83.5285C56.14 84.0269 56.3044 84.5188 56.6321 84.896L61.4539 90.4159L55.9209 95.2368C55.696 95.3818 55.5046 95.573 55.3595 95.7979C55.2144 96.0227 55.119 96.2759 55.0796 96.5406C55.0403 96.8052 55.0579 97.0752 55.1312 97.3326C55.2046 97.5899 55.332 97.8286 55.5051 98.0327C55.6781 98.2368 55.8927 98.4017 56.1345 98.5162C56.3764 98.6308 56.6399 98.6924 56.9075 98.697C57.175 98.7016 57.4405 98.649 57.6861 98.5428C57.9318 98.4366 58.1519 98.2792 58.3318 98.0811L63.8648 93.2602L68.6866 98.7802C68.8483 98.9686 69.0457 99.1233 69.2674 99.2351C69.4891 99.3469 69.7308 99.4137 69.9785 99.4316C70.2261 99.4496 70.4749 99.4183 70.7105 99.3395C70.946 99.2608 71.1636 99.1362 71.3507 98.973C71.7223 98.6434 71.9505 98.1818 71.9865 97.6865C72.0225 97.1911 71.8636 96.7013 71.5436 96.3215Z" fill="white"/>
<path d="M1048.35 733.584L1043.52 728.052L1049.04 723.231C1049.23 723.069 1049.39 722.872 1049.5 722.65C1049.61 722.428 1049.68 722.187 1049.7 721.939C1049.71 721.692 1049.68 721.443 1049.6 721.207C1049.53 720.972 1049.4 720.754 1049.24 720.567C1048.91 720.192 1048.44 719.962 1047.94 719.926C1047.45 719.89 1046.95 720.051 1046.57 720.374L1041.05 725.195L1036.23 719.663C1036.09 719.438 1035.89 719.247 1035.67 719.102C1035.44 718.957 1035.19 718.862 1034.93 718.822C1034.66 718.783 1034.39 718.8 1034.13 718.874C1033.88 718.947 1033.64 719.075 1033.43 719.248C1033.23 719.421 1033.06 719.635 1032.95 719.877C1032.84 720.119 1032.77 720.382 1032.77 720.65C1032.76 720.917 1032.82 721.183 1032.92 721.428C1033.03 721.674 1033.19 721.894 1033.39 722.074L1038.21 727.606L1032.67 732.427C1032.38 732.767 1032.22 733.202 1032.21 733.653C1032.21 734.103 1032.37 734.539 1032.66 734.884C1032.95 735.228 1033.35 735.457 1033.8 735.53C1034.24 735.604 1034.7 735.516 1035.09 735.283L1040.61 730.462L1045.43 735.994C1045.77 736.301 1046.2 736.474 1046.66 736.482C1047.12 736.49 1047.56 736.332 1047.91 736.037C1048.26 735.742 1048.49 735.33 1048.55 734.879C1048.62 734.427 1048.52 733.967 1048.27 733.584H1048.35Z" fill="white"/>
<path d="M419.16 144.675L414.338 139.143L419.871 134.322C420.214 133.985 420.415 133.53 420.435 133.049C420.454 132.569 420.29 132.099 419.975 131.735C419.661 131.371 419.219 131.141 418.741 131.091C418.262 131.041 417.783 131.175 417.4 131.466L411.867 136.287L407.045 130.755C406.704 130.46 406.269 130.297 405.819 130.295C405.368 130.292 404.932 130.45 404.587 130.741C404.243 131.031 404.014 131.435 403.94 131.879C403.867 132.324 403.955 132.78 404.188 133.165L409.01 138.697L403.477 143.518C403.29 143.68 403.137 143.878 403.026 144.099C402.916 144.32 402.85 144.561 402.833 144.808C402.815 145.055 402.847 145.303 402.925 145.537C403.004 145.772 403.128 145.989 403.29 146.176C403.452 146.362 403.65 146.515 403.871 146.626C404.092 146.736 404.333 146.802 404.58 146.819C404.827 146.837 405.075 146.805 405.309 146.727C405.544 146.648 405.761 146.525 405.948 146.362L411.481 141.542L416.303 147.073C416.644 147.368 417.078 147.531 417.529 147.534C417.979 147.536 418.416 147.378 418.76 147.087C419.104 146.797 419.334 146.393 419.407 145.949C419.48 145.504 419.393 145.049 419.16 144.663V144.675Z" fill="white"/>
</svg>
